G75*
%MOIN*%
%OFA0B0*%
%FSLAX25Y25*%
%IPPOS*%
%LPD*%
%AMOC8*
5,1,8,0,0,1.08239X$1,22.5*
%
%ADD10C,0.00394*%
%ADD11C,0.00000*%
D10*
X0008956Y0012414D02*
X0008781Y0012826D01*
X0008606Y0013238D01*
X0008450Y0013660D01*
X0008181Y0014521D01*
X0008067Y0014961D01*
X0007975Y0015408D01*
X0007882Y0015856D01*
X0007812Y0016311D01*
X0007765Y0016773D01*
X0007718Y0017234D01*
X0007693Y0017703D01*
X0007693Y0384792D01*
X0007718Y0385260D01*
X0007812Y0386183D01*
X0007882Y0386639D01*
X0007975Y0387086D01*
X0008067Y0387533D01*
X0008181Y0387973D01*
X0008316Y0388404D01*
X0008450Y0388835D01*
X0008606Y0389257D01*
X0008781Y0389668D01*
X0008956Y0390080D01*
X0009150Y0390482D01*
X0009363Y0390872D01*
X0009576Y0391263D01*
X0009807Y0391642D01*
X0010055Y0392008D01*
X0010303Y0392375D01*
X0010569Y0392729D01*
X0010850Y0393070D01*
X0011131Y0393411D01*
X0011429Y0393738D01*
X0011741Y0394050D01*
X0012053Y0394362D01*
X0012380Y0394659D01*
X0012721Y0394941D01*
X0013061Y0395222D01*
X0013416Y0395488D01*
X0013782Y0395736D01*
X0014149Y0395984D01*
X0014528Y0396215D01*
X0014919Y0396428D01*
X0015309Y0396641D01*
X0015711Y0396835D01*
X0016122Y0397010D01*
X0016534Y0397185D01*
X0016956Y0397341D01*
X0017387Y0397475D01*
X0017818Y0397610D01*
X0018257Y0397724D01*
X0019152Y0397908D01*
X0019607Y0397979D01*
X0020069Y0398026D01*
X0020531Y0398073D01*
X0020999Y0398098D01*
X0199112Y0398098D01*
X0199580Y0398073D01*
X0200042Y0398026D01*
X0200504Y0397979D01*
X0200959Y0397908D01*
X0201854Y0397724D01*
X0202293Y0397610D01*
X0202724Y0397475D01*
X0203155Y0397341D01*
X0203577Y0397185D01*
X0203989Y0397010D01*
X0204400Y0396835D01*
X0204802Y0396641D01*
X0205192Y0396428D01*
X0205583Y0396215D01*
X0205962Y0395984D01*
X0206695Y0395488D01*
X0207050Y0395222D01*
X0207731Y0394659D01*
X0208058Y0394362D01*
X0208682Y0393738D01*
X0208980Y0393411D01*
X0209261Y0393070D01*
X0209542Y0392729D01*
X0209808Y0392375D01*
X0210056Y0392008D01*
X0210304Y0391642D01*
X0210535Y0391263D01*
X0210748Y0390872D01*
X0210961Y0390482D01*
X0211155Y0390080D01*
X0211330Y0389668D01*
X0211505Y0389257D01*
X0211661Y0388835D01*
X0211796Y0388404D01*
X0211930Y0387973D01*
X0212044Y0387533D01*
X0212136Y0387086D01*
X0212229Y0386639D01*
X0212299Y0386183D01*
X0212393Y0385260D01*
X0212418Y0384792D01*
X0212418Y0017676D01*
X0212418Y0017703D02*
X0212393Y0017234D01*
X0212346Y0016773D01*
X0212299Y0016311D01*
X0212229Y0015856D01*
X0212136Y0015408D01*
X0212044Y0014961D01*
X0211930Y0014521D01*
X0211796Y0014090D01*
X0211661Y0013660D01*
X0211505Y0013238D01*
X0211330Y0012826D01*
X0211155Y0012414D01*
X0210961Y0012013D01*
X0210748Y0011622D01*
X0210535Y0011232D01*
X0210304Y0010853D01*
X0210056Y0010486D01*
X0209808Y0010119D01*
X0209542Y0009765D01*
X0209261Y0009424D01*
X0208980Y0009084D01*
X0208682Y0008757D01*
X0208058Y0008132D01*
X0207731Y0007835D01*
X0207390Y0007554D01*
X0207050Y0007272D01*
X0206695Y0007007D01*
X0206329Y0006758D01*
X0205962Y0006510D01*
X0205583Y0006279D01*
X0205192Y0006066D01*
X0204802Y0005853D01*
X0204400Y0005659D01*
X0203989Y0005484D01*
X0203577Y0005309D01*
X0203155Y0005154D01*
X0202724Y0005019D01*
X0202293Y0004884D01*
X0201854Y0004770D01*
X0200959Y0004586D01*
X0200504Y0004516D01*
X0200042Y0004468D01*
X0199580Y0004421D01*
X0199112Y0004397D01*
X0020999Y0004397D01*
X0020531Y0004421D01*
X0020069Y0004468D01*
X0019607Y0004516D01*
X0019152Y0004586D01*
X0018257Y0004770D01*
X0017818Y0004884D01*
X0017387Y0005019D01*
X0016956Y0005154D01*
X0016534Y0005309D01*
X0016122Y0005484D01*
X0015711Y0005659D01*
X0015309Y0005853D01*
X0014919Y0006066D01*
X0014528Y0006279D01*
X0014149Y0006510D01*
X0013782Y0006758D01*
X0013416Y0007007D01*
X0013061Y0007272D01*
X0012721Y0007554D01*
X0012380Y0007835D01*
X0012053Y0008132D01*
X0011741Y0008445D01*
X0011429Y0008757D01*
X0011131Y0009084D01*
X0010850Y0009424D01*
X0010569Y0009765D01*
X0010303Y0010119D01*
X0010055Y0010486D01*
X0009807Y0010853D01*
X0009576Y0011232D01*
X0009363Y0011622D01*
X0009150Y0012013D01*
X0008956Y0012414D01*
D11*
X0015334Y0036310D02*
X0015334Y0050090D01*
X0018483Y0050090D01*
X0018483Y0036310D01*
X0015334Y0036310D01*
X0024783Y0022728D02*
X0024783Y0019578D01*
X0036594Y0019578D01*
X0036594Y0022728D01*
X0024783Y0022728D01*
X0035806Y0030602D02*
X0035806Y0033751D01*
X0047617Y0033751D01*
X0047617Y0030602D01*
X0035806Y0030602D01*
X0073901Y0049200D02*
X0073903Y0049358D01*
X0073909Y0049516D01*
X0073919Y0049674D01*
X0073933Y0049832D01*
X0073951Y0049989D01*
X0073972Y0050146D01*
X0073998Y0050302D01*
X0074028Y0050458D01*
X0074061Y0050613D01*
X0074099Y0050766D01*
X0074140Y0050919D01*
X0074185Y0051071D01*
X0074234Y0051222D01*
X0074287Y0051371D01*
X0074343Y0051519D01*
X0074403Y0051665D01*
X0074467Y0051810D01*
X0074535Y0051953D01*
X0074606Y0052095D01*
X0074680Y0052235D01*
X0074758Y0052372D01*
X0074840Y0052508D01*
X0074924Y0052642D01*
X0075013Y0052773D01*
X0075104Y0052902D01*
X0075199Y0053029D01*
X0075296Y0053154D01*
X0075397Y0053276D01*
X0075501Y0053395D01*
X0075608Y0053512D01*
X0075718Y0053626D01*
X0075831Y0053737D01*
X0075946Y0053846D01*
X0076064Y0053951D01*
X0076185Y0054053D01*
X0076308Y0054153D01*
X0076434Y0054249D01*
X0076562Y0054342D01*
X0076692Y0054432D01*
X0076825Y0054518D01*
X0076960Y0054602D01*
X0077096Y0054681D01*
X0077235Y0054758D01*
X0077376Y0054830D01*
X0077518Y0054900D01*
X0077662Y0054965D01*
X0077808Y0055027D01*
X0077955Y0055085D01*
X0078104Y0055140D01*
X0078254Y0055191D01*
X0078405Y0055238D01*
X0078557Y0055281D01*
X0078710Y0055320D01*
X0078865Y0055356D01*
X0079020Y0055387D01*
X0079176Y0055415D01*
X0079332Y0055439D01*
X0079489Y0055459D01*
X0079647Y0055475D01*
X0079804Y0055487D01*
X0079963Y0055495D01*
X0080121Y0055499D01*
X0080279Y0055499D01*
X0080437Y0055495D01*
X0080596Y0055487D01*
X0080753Y0055475D01*
X0080911Y0055459D01*
X0081068Y0055439D01*
X0081224Y0055415D01*
X0081380Y0055387D01*
X0081535Y0055356D01*
X0081690Y0055320D01*
X0081843Y0055281D01*
X0081995Y0055238D01*
X0082146Y0055191D01*
X0082296Y0055140D01*
X0082445Y0055085D01*
X0082592Y0055027D01*
X0082738Y0054965D01*
X0082882Y0054900D01*
X0083024Y0054830D01*
X0083165Y0054758D01*
X0083304Y0054681D01*
X0083440Y0054602D01*
X0083575Y0054518D01*
X0083708Y0054432D01*
X0083838Y0054342D01*
X0083966Y0054249D01*
X0084092Y0054153D01*
X0084215Y0054053D01*
X0084336Y0053951D01*
X0084454Y0053846D01*
X0084569Y0053737D01*
X0084682Y0053626D01*
X0084792Y0053512D01*
X0084899Y0053395D01*
X0085003Y0053276D01*
X0085104Y0053154D01*
X0085201Y0053029D01*
X0085296Y0052902D01*
X0085387Y0052773D01*
X0085476Y0052642D01*
X0085560Y0052508D01*
X0085642Y0052372D01*
X0085720Y0052235D01*
X0085794Y0052095D01*
X0085865Y0051953D01*
X0085933Y0051810D01*
X0085997Y0051665D01*
X0086057Y0051519D01*
X0086113Y0051371D01*
X0086166Y0051222D01*
X0086215Y0051071D01*
X0086260Y0050919D01*
X0086301Y0050766D01*
X0086339Y0050613D01*
X0086372Y0050458D01*
X0086402Y0050302D01*
X0086428Y0050146D01*
X0086449Y0049989D01*
X0086467Y0049832D01*
X0086481Y0049674D01*
X0086491Y0049516D01*
X0086497Y0049358D01*
X0086499Y0049200D01*
X0086497Y0049042D01*
X0086491Y0048884D01*
X0086481Y0048726D01*
X0086467Y0048568D01*
X0086449Y0048411D01*
X0086428Y0048254D01*
X0086402Y0048098D01*
X0086372Y0047942D01*
X0086339Y0047787D01*
X0086301Y0047634D01*
X0086260Y0047481D01*
X0086215Y0047329D01*
X0086166Y0047178D01*
X0086113Y0047029D01*
X0086057Y0046881D01*
X0085997Y0046735D01*
X0085933Y0046590D01*
X0085865Y0046447D01*
X0085794Y0046305D01*
X0085720Y0046165D01*
X0085642Y0046028D01*
X0085560Y0045892D01*
X0085476Y0045758D01*
X0085387Y0045627D01*
X0085296Y0045498D01*
X0085201Y0045371D01*
X0085104Y0045246D01*
X0085003Y0045124D01*
X0084899Y0045005D01*
X0084792Y0044888D01*
X0084682Y0044774D01*
X0084569Y0044663D01*
X0084454Y0044554D01*
X0084336Y0044449D01*
X0084215Y0044347D01*
X0084092Y0044247D01*
X0083966Y0044151D01*
X0083838Y0044058D01*
X0083708Y0043968D01*
X0083575Y0043882D01*
X0083440Y0043798D01*
X0083304Y0043719D01*
X0083165Y0043642D01*
X0083024Y0043570D01*
X0082882Y0043500D01*
X0082738Y0043435D01*
X0082592Y0043373D01*
X0082445Y0043315D01*
X0082296Y0043260D01*
X0082146Y0043209D01*
X0081995Y0043162D01*
X0081843Y0043119D01*
X0081690Y0043080D01*
X0081535Y0043044D01*
X0081380Y0043013D01*
X0081224Y0042985D01*
X0081068Y0042961D01*
X0080911Y0042941D01*
X0080753Y0042925D01*
X0080596Y0042913D01*
X0080437Y0042905D01*
X0080279Y0042901D01*
X0080121Y0042901D01*
X0079963Y0042905D01*
X0079804Y0042913D01*
X0079647Y0042925D01*
X0079489Y0042941D01*
X0079332Y0042961D01*
X0079176Y0042985D01*
X0079020Y0043013D01*
X0078865Y0043044D01*
X0078710Y0043080D01*
X0078557Y0043119D01*
X0078405Y0043162D01*
X0078254Y0043209D01*
X0078104Y0043260D01*
X0077955Y0043315D01*
X0077808Y0043373D01*
X0077662Y0043435D01*
X0077518Y0043500D01*
X0077376Y0043570D01*
X0077235Y0043642D01*
X0077096Y0043719D01*
X0076960Y0043798D01*
X0076825Y0043882D01*
X0076692Y0043968D01*
X0076562Y0044058D01*
X0076434Y0044151D01*
X0076308Y0044247D01*
X0076185Y0044347D01*
X0076064Y0044449D01*
X0075946Y0044554D01*
X0075831Y0044663D01*
X0075718Y0044774D01*
X0075608Y0044888D01*
X0075501Y0045005D01*
X0075397Y0045124D01*
X0075296Y0045246D01*
X0075199Y0045371D01*
X0075104Y0045498D01*
X0075013Y0045627D01*
X0074924Y0045758D01*
X0074840Y0045892D01*
X0074758Y0046028D01*
X0074680Y0046165D01*
X0074606Y0046305D01*
X0074535Y0046447D01*
X0074467Y0046590D01*
X0074403Y0046735D01*
X0074343Y0046881D01*
X0074287Y0047029D01*
X0074234Y0047178D01*
X0074185Y0047329D01*
X0074140Y0047481D01*
X0074099Y0047634D01*
X0074061Y0047787D01*
X0074028Y0047942D01*
X0073998Y0048098D01*
X0073972Y0048254D01*
X0073951Y0048411D01*
X0073933Y0048568D01*
X0073919Y0048726D01*
X0073909Y0048884D01*
X0073903Y0049042D01*
X0073901Y0049200D01*
X0133401Y0049200D02*
X0133403Y0049358D01*
X0133409Y0049516D01*
X0133419Y0049674D01*
X0133433Y0049832D01*
X0133451Y0049989D01*
X0133472Y0050146D01*
X0133498Y0050302D01*
X0133528Y0050458D01*
X0133561Y0050613D01*
X0133599Y0050766D01*
X0133640Y0050919D01*
X0133685Y0051071D01*
X0133734Y0051222D01*
X0133787Y0051371D01*
X0133843Y0051519D01*
X0133903Y0051665D01*
X0133967Y0051810D01*
X0134035Y0051953D01*
X0134106Y0052095D01*
X0134180Y0052235D01*
X0134258Y0052372D01*
X0134340Y0052508D01*
X0134424Y0052642D01*
X0134513Y0052773D01*
X0134604Y0052902D01*
X0134699Y0053029D01*
X0134796Y0053154D01*
X0134897Y0053276D01*
X0135001Y0053395D01*
X0135108Y0053512D01*
X0135218Y0053626D01*
X0135331Y0053737D01*
X0135446Y0053846D01*
X0135564Y0053951D01*
X0135685Y0054053D01*
X0135808Y0054153D01*
X0135934Y0054249D01*
X0136062Y0054342D01*
X0136192Y0054432D01*
X0136325Y0054518D01*
X0136460Y0054602D01*
X0136596Y0054681D01*
X0136735Y0054758D01*
X0136876Y0054830D01*
X0137018Y0054900D01*
X0137162Y0054965D01*
X0137308Y0055027D01*
X0137455Y0055085D01*
X0137604Y0055140D01*
X0137754Y0055191D01*
X0137905Y0055238D01*
X0138057Y0055281D01*
X0138210Y0055320D01*
X0138365Y0055356D01*
X0138520Y0055387D01*
X0138676Y0055415D01*
X0138832Y0055439D01*
X0138989Y0055459D01*
X0139147Y0055475D01*
X0139304Y0055487D01*
X0139463Y0055495D01*
X0139621Y0055499D01*
X0139779Y0055499D01*
X0139937Y0055495D01*
X0140096Y0055487D01*
X0140253Y0055475D01*
X0140411Y0055459D01*
X0140568Y0055439D01*
X0140724Y0055415D01*
X0140880Y0055387D01*
X0141035Y0055356D01*
X0141190Y0055320D01*
X0141343Y0055281D01*
X0141495Y0055238D01*
X0141646Y0055191D01*
X0141796Y0055140D01*
X0141945Y0055085D01*
X0142092Y0055027D01*
X0142238Y0054965D01*
X0142382Y0054900D01*
X0142524Y0054830D01*
X0142665Y0054758D01*
X0142804Y0054681D01*
X0142940Y0054602D01*
X0143075Y0054518D01*
X0143208Y0054432D01*
X0143338Y0054342D01*
X0143466Y0054249D01*
X0143592Y0054153D01*
X0143715Y0054053D01*
X0143836Y0053951D01*
X0143954Y0053846D01*
X0144069Y0053737D01*
X0144182Y0053626D01*
X0144292Y0053512D01*
X0144399Y0053395D01*
X0144503Y0053276D01*
X0144604Y0053154D01*
X0144701Y0053029D01*
X0144796Y0052902D01*
X0144887Y0052773D01*
X0144976Y0052642D01*
X0145060Y0052508D01*
X0145142Y0052372D01*
X0145220Y0052235D01*
X0145294Y0052095D01*
X0145365Y0051953D01*
X0145433Y0051810D01*
X0145497Y0051665D01*
X0145557Y0051519D01*
X0145613Y0051371D01*
X0145666Y0051222D01*
X0145715Y0051071D01*
X0145760Y0050919D01*
X0145801Y0050766D01*
X0145839Y0050613D01*
X0145872Y0050458D01*
X0145902Y0050302D01*
X0145928Y0050146D01*
X0145949Y0049989D01*
X0145967Y0049832D01*
X0145981Y0049674D01*
X0145991Y0049516D01*
X0145997Y0049358D01*
X0145999Y0049200D01*
X0145997Y0049042D01*
X0145991Y0048884D01*
X0145981Y0048726D01*
X0145967Y0048568D01*
X0145949Y0048411D01*
X0145928Y0048254D01*
X0145902Y0048098D01*
X0145872Y0047942D01*
X0145839Y0047787D01*
X0145801Y0047634D01*
X0145760Y0047481D01*
X0145715Y0047329D01*
X0145666Y0047178D01*
X0145613Y0047029D01*
X0145557Y0046881D01*
X0145497Y0046735D01*
X0145433Y0046590D01*
X0145365Y0046447D01*
X0145294Y0046305D01*
X0145220Y0046165D01*
X0145142Y0046028D01*
X0145060Y0045892D01*
X0144976Y0045758D01*
X0144887Y0045627D01*
X0144796Y0045498D01*
X0144701Y0045371D01*
X0144604Y0045246D01*
X0144503Y0045124D01*
X0144399Y0045005D01*
X0144292Y0044888D01*
X0144182Y0044774D01*
X0144069Y0044663D01*
X0143954Y0044554D01*
X0143836Y0044449D01*
X0143715Y0044347D01*
X0143592Y0044247D01*
X0143466Y0044151D01*
X0143338Y0044058D01*
X0143208Y0043968D01*
X0143075Y0043882D01*
X0142940Y0043798D01*
X0142804Y0043719D01*
X0142665Y0043642D01*
X0142524Y0043570D01*
X0142382Y0043500D01*
X0142238Y0043435D01*
X0142092Y0043373D01*
X0141945Y0043315D01*
X0141796Y0043260D01*
X0141646Y0043209D01*
X0141495Y0043162D01*
X0141343Y0043119D01*
X0141190Y0043080D01*
X0141035Y0043044D01*
X0140880Y0043013D01*
X0140724Y0042985D01*
X0140568Y0042961D01*
X0140411Y0042941D01*
X0140253Y0042925D01*
X0140096Y0042913D01*
X0139937Y0042905D01*
X0139779Y0042901D01*
X0139621Y0042901D01*
X0139463Y0042905D01*
X0139304Y0042913D01*
X0139147Y0042925D01*
X0138989Y0042941D01*
X0138832Y0042961D01*
X0138676Y0042985D01*
X0138520Y0043013D01*
X0138365Y0043044D01*
X0138210Y0043080D01*
X0138057Y0043119D01*
X0137905Y0043162D01*
X0137754Y0043209D01*
X0137604Y0043260D01*
X0137455Y0043315D01*
X0137308Y0043373D01*
X0137162Y0043435D01*
X0137018Y0043500D01*
X0136876Y0043570D01*
X0136735Y0043642D01*
X0136596Y0043719D01*
X0136460Y0043798D01*
X0136325Y0043882D01*
X0136192Y0043968D01*
X0136062Y0044058D01*
X0135934Y0044151D01*
X0135808Y0044247D01*
X0135685Y0044347D01*
X0135564Y0044449D01*
X0135446Y0044554D01*
X0135331Y0044663D01*
X0135218Y0044774D01*
X0135108Y0044888D01*
X0135001Y0045005D01*
X0134897Y0045124D01*
X0134796Y0045246D01*
X0134699Y0045371D01*
X0134604Y0045498D01*
X0134513Y0045627D01*
X0134424Y0045758D01*
X0134340Y0045892D01*
X0134258Y0046028D01*
X0134180Y0046165D01*
X0134106Y0046305D01*
X0134035Y0046447D01*
X0133967Y0046590D01*
X0133903Y0046735D01*
X0133843Y0046881D01*
X0133787Y0047029D01*
X0133734Y0047178D01*
X0133685Y0047329D01*
X0133640Y0047481D01*
X0133599Y0047634D01*
X0133561Y0047787D01*
X0133528Y0047942D01*
X0133498Y0048098D01*
X0133472Y0048254D01*
X0133451Y0048411D01*
X0133433Y0048568D01*
X0133419Y0048726D01*
X0133409Y0048884D01*
X0133403Y0049042D01*
X0133401Y0049200D01*
X0188401Y0335700D02*
X0188403Y0335858D01*
X0188409Y0336016D01*
X0188419Y0336174D01*
X0188433Y0336332D01*
X0188451Y0336489D01*
X0188472Y0336646D01*
X0188498Y0336802D01*
X0188528Y0336958D01*
X0188561Y0337113D01*
X0188599Y0337266D01*
X0188640Y0337419D01*
X0188685Y0337571D01*
X0188734Y0337722D01*
X0188787Y0337871D01*
X0188843Y0338019D01*
X0188903Y0338165D01*
X0188967Y0338310D01*
X0189035Y0338453D01*
X0189106Y0338595D01*
X0189180Y0338735D01*
X0189258Y0338872D01*
X0189340Y0339008D01*
X0189424Y0339142D01*
X0189513Y0339273D01*
X0189604Y0339402D01*
X0189699Y0339529D01*
X0189796Y0339654D01*
X0189897Y0339776D01*
X0190001Y0339895D01*
X0190108Y0340012D01*
X0190218Y0340126D01*
X0190331Y0340237D01*
X0190446Y0340346D01*
X0190564Y0340451D01*
X0190685Y0340553D01*
X0190808Y0340653D01*
X0190934Y0340749D01*
X0191062Y0340842D01*
X0191192Y0340932D01*
X0191325Y0341018D01*
X0191460Y0341102D01*
X0191596Y0341181D01*
X0191735Y0341258D01*
X0191876Y0341330D01*
X0192018Y0341400D01*
X0192162Y0341465D01*
X0192308Y0341527D01*
X0192455Y0341585D01*
X0192604Y0341640D01*
X0192754Y0341691D01*
X0192905Y0341738D01*
X0193057Y0341781D01*
X0193210Y0341820D01*
X0193365Y0341856D01*
X0193520Y0341887D01*
X0193676Y0341915D01*
X0193832Y0341939D01*
X0193989Y0341959D01*
X0194147Y0341975D01*
X0194304Y0341987D01*
X0194463Y0341995D01*
X0194621Y0341999D01*
X0194779Y0341999D01*
X0194937Y0341995D01*
X0195096Y0341987D01*
X0195253Y0341975D01*
X0195411Y0341959D01*
X0195568Y0341939D01*
X0195724Y0341915D01*
X0195880Y0341887D01*
X0196035Y0341856D01*
X0196190Y0341820D01*
X0196343Y0341781D01*
X0196495Y0341738D01*
X0196646Y0341691D01*
X0196796Y0341640D01*
X0196945Y0341585D01*
X0197092Y0341527D01*
X0197238Y0341465D01*
X0197382Y0341400D01*
X0197524Y0341330D01*
X0197665Y0341258D01*
X0197804Y0341181D01*
X0197940Y0341102D01*
X0198075Y0341018D01*
X0198208Y0340932D01*
X0198338Y0340842D01*
X0198466Y0340749D01*
X0198592Y0340653D01*
X0198715Y0340553D01*
X0198836Y0340451D01*
X0198954Y0340346D01*
X0199069Y0340237D01*
X0199182Y0340126D01*
X0199292Y0340012D01*
X0199399Y0339895D01*
X0199503Y0339776D01*
X0199604Y0339654D01*
X0199701Y0339529D01*
X0199796Y0339402D01*
X0199887Y0339273D01*
X0199976Y0339142D01*
X0200060Y0339008D01*
X0200142Y0338872D01*
X0200220Y0338735D01*
X0200294Y0338595D01*
X0200365Y0338453D01*
X0200433Y0338310D01*
X0200497Y0338165D01*
X0200557Y0338019D01*
X0200613Y0337871D01*
X0200666Y0337722D01*
X0200715Y0337571D01*
X0200760Y0337419D01*
X0200801Y0337266D01*
X0200839Y0337113D01*
X0200872Y0336958D01*
X0200902Y0336802D01*
X0200928Y0336646D01*
X0200949Y0336489D01*
X0200967Y0336332D01*
X0200981Y0336174D01*
X0200991Y0336016D01*
X0200997Y0335858D01*
X0200999Y0335700D01*
X0200997Y0335542D01*
X0200991Y0335384D01*
X0200981Y0335226D01*
X0200967Y0335068D01*
X0200949Y0334911D01*
X0200928Y0334754D01*
X0200902Y0334598D01*
X0200872Y0334442D01*
X0200839Y0334287D01*
X0200801Y0334134D01*
X0200760Y0333981D01*
X0200715Y0333829D01*
X0200666Y0333678D01*
X0200613Y0333529D01*
X0200557Y0333381D01*
X0200497Y0333235D01*
X0200433Y0333090D01*
X0200365Y0332947D01*
X0200294Y0332805D01*
X0200220Y0332665D01*
X0200142Y0332528D01*
X0200060Y0332392D01*
X0199976Y0332258D01*
X0199887Y0332127D01*
X0199796Y0331998D01*
X0199701Y0331871D01*
X0199604Y0331746D01*
X0199503Y0331624D01*
X0199399Y0331505D01*
X0199292Y0331388D01*
X0199182Y0331274D01*
X0199069Y0331163D01*
X0198954Y0331054D01*
X0198836Y0330949D01*
X0198715Y0330847D01*
X0198592Y0330747D01*
X0198466Y0330651D01*
X0198338Y0330558D01*
X0198208Y0330468D01*
X0198075Y0330382D01*
X0197940Y0330298D01*
X0197804Y0330219D01*
X0197665Y0330142D01*
X0197524Y0330070D01*
X0197382Y0330000D01*
X0197238Y0329935D01*
X0197092Y0329873D01*
X0196945Y0329815D01*
X0196796Y0329760D01*
X0196646Y0329709D01*
X0196495Y0329662D01*
X0196343Y0329619D01*
X0196190Y0329580D01*
X0196035Y0329544D01*
X0195880Y0329513D01*
X0195724Y0329485D01*
X0195568Y0329461D01*
X0195411Y0329441D01*
X0195253Y0329425D01*
X0195096Y0329413D01*
X0194937Y0329405D01*
X0194779Y0329401D01*
X0194621Y0329401D01*
X0194463Y0329405D01*
X0194304Y0329413D01*
X0194147Y0329425D01*
X0193989Y0329441D01*
X0193832Y0329461D01*
X0193676Y0329485D01*
X0193520Y0329513D01*
X0193365Y0329544D01*
X0193210Y0329580D01*
X0193057Y0329619D01*
X0192905Y0329662D01*
X0192754Y0329709D01*
X0192604Y0329760D01*
X0192455Y0329815D01*
X0192308Y0329873D01*
X0192162Y0329935D01*
X0192018Y0330000D01*
X0191876Y0330070D01*
X0191735Y0330142D01*
X0191596Y0330219D01*
X0191460Y0330298D01*
X0191325Y0330382D01*
X0191192Y0330468D01*
X0191062Y0330558D01*
X0190934Y0330651D01*
X0190808Y0330747D01*
X0190685Y0330847D01*
X0190564Y0330949D01*
X0190446Y0331054D01*
X0190331Y0331163D01*
X0190218Y0331274D01*
X0190108Y0331388D01*
X0190001Y0331505D01*
X0189897Y0331624D01*
X0189796Y0331746D01*
X0189699Y0331871D01*
X0189604Y0331998D01*
X0189513Y0332127D01*
X0189424Y0332258D01*
X0189340Y0332392D01*
X0189258Y0332528D01*
X0189180Y0332665D01*
X0189106Y0332805D01*
X0189035Y0332947D01*
X0188967Y0333090D01*
X0188903Y0333235D01*
X0188843Y0333381D01*
X0188787Y0333529D01*
X0188734Y0333678D01*
X0188685Y0333829D01*
X0188640Y0333981D01*
X0188599Y0334134D01*
X0188561Y0334287D01*
X0188528Y0334442D01*
X0188498Y0334598D01*
X0188472Y0334754D01*
X0188451Y0334911D01*
X0188433Y0335068D01*
X0188419Y0335226D01*
X0188409Y0335384D01*
X0188403Y0335542D01*
X0188401Y0335700D01*
X0019401Y0335700D02*
X0019403Y0335858D01*
X0019409Y0336016D01*
X0019419Y0336174D01*
X0019433Y0336332D01*
X0019451Y0336489D01*
X0019472Y0336646D01*
X0019498Y0336802D01*
X0019528Y0336958D01*
X0019561Y0337113D01*
X0019599Y0337266D01*
X0019640Y0337419D01*
X0019685Y0337571D01*
X0019734Y0337722D01*
X0019787Y0337871D01*
X0019843Y0338019D01*
X0019903Y0338165D01*
X0019967Y0338310D01*
X0020035Y0338453D01*
X0020106Y0338595D01*
X0020180Y0338735D01*
X0020258Y0338872D01*
X0020340Y0339008D01*
X0020424Y0339142D01*
X0020513Y0339273D01*
X0020604Y0339402D01*
X0020699Y0339529D01*
X0020796Y0339654D01*
X0020897Y0339776D01*
X0021001Y0339895D01*
X0021108Y0340012D01*
X0021218Y0340126D01*
X0021331Y0340237D01*
X0021446Y0340346D01*
X0021564Y0340451D01*
X0021685Y0340553D01*
X0021808Y0340653D01*
X0021934Y0340749D01*
X0022062Y0340842D01*
X0022192Y0340932D01*
X0022325Y0341018D01*
X0022460Y0341102D01*
X0022596Y0341181D01*
X0022735Y0341258D01*
X0022876Y0341330D01*
X0023018Y0341400D01*
X0023162Y0341465D01*
X0023308Y0341527D01*
X0023455Y0341585D01*
X0023604Y0341640D01*
X0023754Y0341691D01*
X0023905Y0341738D01*
X0024057Y0341781D01*
X0024210Y0341820D01*
X0024365Y0341856D01*
X0024520Y0341887D01*
X0024676Y0341915D01*
X0024832Y0341939D01*
X0024989Y0341959D01*
X0025147Y0341975D01*
X0025304Y0341987D01*
X0025463Y0341995D01*
X0025621Y0341999D01*
X0025779Y0341999D01*
X0025937Y0341995D01*
X0026096Y0341987D01*
X0026253Y0341975D01*
X0026411Y0341959D01*
X0026568Y0341939D01*
X0026724Y0341915D01*
X0026880Y0341887D01*
X0027035Y0341856D01*
X0027190Y0341820D01*
X0027343Y0341781D01*
X0027495Y0341738D01*
X0027646Y0341691D01*
X0027796Y0341640D01*
X0027945Y0341585D01*
X0028092Y0341527D01*
X0028238Y0341465D01*
X0028382Y0341400D01*
X0028524Y0341330D01*
X0028665Y0341258D01*
X0028804Y0341181D01*
X0028940Y0341102D01*
X0029075Y0341018D01*
X0029208Y0340932D01*
X0029338Y0340842D01*
X0029466Y0340749D01*
X0029592Y0340653D01*
X0029715Y0340553D01*
X0029836Y0340451D01*
X0029954Y0340346D01*
X0030069Y0340237D01*
X0030182Y0340126D01*
X0030292Y0340012D01*
X0030399Y0339895D01*
X0030503Y0339776D01*
X0030604Y0339654D01*
X0030701Y0339529D01*
X0030796Y0339402D01*
X0030887Y0339273D01*
X0030976Y0339142D01*
X0031060Y0339008D01*
X0031142Y0338872D01*
X0031220Y0338735D01*
X0031294Y0338595D01*
X0031365Y0338453D01*
X0031433Y0338310D01*
X0031497Y0338165D01*
X0031557Y0338019D01*
X0031613Y0337871D01*
X0031666Y0337722D01*
X0031715Y0337571D01*
X0031760Y0337419D01*
X0031801Y0337266D01*
X0031839Y0337113D01*
X0031872Y0336958D01*
X0031902Y0336802D01*
X0031928Y0336646D01*
X0031949Y0336489D01*
X0031967Y0336332D01*
X0031981Y0336174D01*
X0031991Y0336016D01*
X0031997Y0335858D01*
X0031999Y0335700D01*
X0031997Y0335542D01*
X0031991Y0335384D01*
X0031981Y0335226D01*
X0031967Y0335068D01*
X0031949Y0334911D01*
X0031928Y0334754D01*
X0031902Y0334598D01*
X0031872Y0334442D01*
X0031839Y0334287D01*
X0031801Y0334134D01*
X0031760Y0333981D01*
X0031715Y0333829D01*
X0031666Y0333678D01*
X0031613Y0333529D01*
X0031557Y0333381D01*
X0031497Y0333235D01*
X0031433Y0333090D01*
X0031365Y0332947D01*
X0031294Y0332805D01*
X0031220Y0332665D01*
X0031142Y0332528D01*
X0031060Y0332392D01*
X0030976Y0332258D01*
X0030887Y0332127D01*
X0030796Y0331998D01*
X0030701Y0331871D01*
X0030604Y0331746D01*
X0030503Y0331624D01*
X0030399Y0331505D01*
X0030292Y0331388D01*
X0030182Y0331274D01*
X0030069Y0331163D01*
X0029954Y0331054D01*
X0029836Y0330949D01*
X0029715Y0330847D01*
X0029592Y0330747D01*
X0029466Y0330651D01*
X0029338Y0330558D01*
X0029208Y0330468D01*
X0029075Y0330382D01*
X0028940Y0330298D01*
X0028804Y0330219D01*
X0028665Y0330142D01*
X0028524Y0330070D01*
X0028382Y0330000D01*
X0028238Y0329935D01*
X0028092Y0329873D01*
X0027945Y0329815D01*
X0027796Y0329760D01*
X0027646Y0329709D01*
X0027495Y0329662D01*
X0027343Y0329619D01*
X0027190Y0329580D01*
X0027035Y0329544D01*
X0026880Y0329513D01*
X0026724Y0329485D01*
X0026568Y0329461D01*
X0026411Y0329441D01*
X0026253Y0329425D01*
X0026096Y0329413D01*
X0025937Y0329405D01*
X0025779Y0329401D01*
X0025621Y0329401D01*
X0025463Y0329405D01*
X0025304Y0329413D01*
X0025147Y0329425D01*
X0024989Y0329441D01*
X0024832Y0329461D01*
X0024676Y0329485D01*
X0024520Y0329513D01*
X0024365Y0329544D01*
X0024210Y0329580D01*
X0024057Y0329619D01*
X0023905Y0329662D01*
X0023754Y0329709D01*
X0023604Y0329760D01*
X0023455Y0329815D01*
X0023308Y0329873D01*
X0023162Y0329935D01*
X0023018Y0330000D01*
X0022876Y0330070D01*
X0022735Y0330142D01*
X0022596Y0330219D01*
X0022460Y0330298D01*
X0022325Y0330382D01*
X0022192Y0330468D01*
X0022062Y0330558D01*
X0021934Y0330651D01*
X0021808Y0330747D01*
X0021685Y0330847D01*
X0021564Y0330949D01*
X0021446Y0331054D01*
X0021331Y0331163D01*
X0021218Y0331274D01*
X0021108Y0331388D01*
X0021001Y0331505D01*
X0020897Y0331624D01*
X0020796Y0331746D01*
X0020699Y0331871D01*
X0020604Y0331998D01*
X0020513Y0332127D01*
X0020424Y0332258D01*
X0020340Y0332392D01*
X0020258Y0332528D01*
X0020180Y0332665D01*
X0020106Y0332805D01*
X0020035Y0332947D01*
X0019967Y0333090D01*
X0019903Y0333235D01*
X0019843Y0333381D01*
X0019787Y0333529D01*
X0019734Y0333678D01*
X0019685Y0333829D01*
X0019640Y0333981D01*
X0019599Y0334134D01*
X0019561Y0334287D01*
X0019528Y0334442D01*
X0019498Y0334598D01*
X0019472Y0334754D01*
X0019451Y0334911D01*
X0019433Y0335068D01*
X0019419Y0335226D01*
X0019409Y0335384D01*
X0019403Y0335542D01*
X0019401Y0335700D01*
M02*
