%
M48
M72
T01C0.01000
T02C0.01200
T03C0.01500
T04C0.01600
T05C0.02000
T06C0.02400
T07C0.02756
T08C0.03150
T09C0.03600
T10C0.04000
T11C0.09000
T12C0.09100
T13C0.12598
%
T01
X143100Y114500
X142200Y124200
X150200Y119200
X153700Y111200
X159700Y127200
X163200Y126700
X165700Y124200
X169400Y123500
X163700Y115200
X164200Y106700
X164200Y100500
X178600Y102500
X189200Y105200
X190000Y108200
X191500Y110900
X189500Y113200
X188200Y123200
X187700Y127200
X163200Y136700
X162200Y63200
T02
X166700Y59700
X170700Y58200
X174700Y58200
X178700Y56200
X193200Y72200
X178700Y113700
X178700Y116700
X175700Y116700
X175700Y113700
X162200Y96200
X161200Y88200
X165700Y80700
X149400Y107400
X144600Y95200
X128200Y45700
X120200Y38200
X132200Y28700
X105200Y56700
X69700Y27200
X69700Y24200
X69700Y21200
X66700Y21200
X66700Y24200
X66700Y27200
X63700Y27200
X63700Y24200
X63700Y21200
X113100Y151500
X113100Y171300
X109800Y182500
X106700Y183700
X112200Y201200
X116700Y201200
X119200Y198700
X121700Y196200
X120700Y189700
X122700Y187200
X118700Y192200
X126700Y205200
X124200Y207200
X129200Y203200
X114700Y214200
X107200Y204700
X100200Y208700
X122500Y230700
X125700Y229200
X141700Y223200
X141700Y220200
X144700Y220200
X144700Y223200
X153700Y223200
X153700Y220200
X156700Y220200
X156700Y223200
X155200Y229700
X152700Y232200
X163700Y250200
X153200Y274200
X153200Y277200
X153200Y280200
X150200Y280200
X150200Y277200
X150200Y274200
X147200Y274200
X147200Y277200
X147200Y280200
X142200Y282200
X132700Y271200
X113700Y274200
X113700Y277200
X113700Y280200
X110700Y280200
X110700Y277200
X110700Y274200
X107700Y274200
X107700Y277200
X107700Y280200
X100700Y310200
X100200Y314700
X97200Y314700
X94200Y314700
X94200Y311700
X91200Y311700
X91200Y314700
X88200Y314700
X88200Y311700
X85200Y311700
X85200Y314700
X85200Y324700
X85200Y327700
X88200Y327700
X88200Y324700
X91200Y324700
X100700Y329200
X103200Y314700
X113700Y314700
X113700Y317700
X113700Y320700
X116700Y320700
X116700Y317700
X116700Y314700
X119700Y314700
X119700Y317700
X119700Y320700
X122700Y320700
X122700Y317700
X122700Y314700
X125700Y314700
X125700Y317700
X125700Y320700
X128700Y320700
X128700Y317700
X128700Y314700
X131700Y314700
X131700Y317700
X131700Y320700
X134200Y325700
X134700Y320700
X134700Y317700
X134700Y314700
X137700Y314700
X137700Y317700
X137700Y320700
X140700Y320700
X140700Y317700
X140700Y314700
X143700Y314700
X143700Y317700
X143700Y320700
X143700Y323700
X141200Y329200
X140700Y323700
X142200Y310200
X154200Y308700
X154200Y317200
X154200Y293700
X172700Y334200
X172700Y337200
X161200Y355700
X161200Y358700
X161200Y361700
X158200Y361700
X158200Y358700
X158200Y355700
X155200Y355700
X155200Y358700
X155200Y361700
X142700Y368700
X134700Y361700
X87700Y357700
X37200Y307200
X37200Y304200
X37200Y301200
X34200Y301200
X34200Y304200
X34200Y307200
X31200Y307200
X31200Y304200
X31200Y301200
X31700Y260700
X31700Y257700
X31700Y254700
X34700Y254700
X34700Y257700
X34700Y260700
X37700Y260700
X37700Y257700
X37700Y254700
X37200Y203200
X37200Y200200
X37200Y197200
X34200Y197200
X34200Y200200
X34200Y203200
X31200Y203200
X31200Y200200
X31200Y197200
X21200Y187200
X12200Y201200
X10700Y194700
X31200Y165200
X31200Y162200
X31200Y159200
X34200Y159200
X34200Y162200
X34200Y165200
X37200Y165200
X37200Y162200
X37200Y159200
X80200Y159200
X80200Y162200
X80200Y165200
X83200Y165200
X83200Y162200
X83200Y159200
X86200Y159200
X86200Y162200
X86200Y165200
X131700Y157200
X145200Y189700
X145100Y199500
X145500Y208600
X153200Y189700
X158200Y197200
X158200Y200200
X158200Y203200
X161200Y203200
X161200Y200200
X161200Y197200
X164200Y197200
X164200Y200200
X164200Y203200
X168000Y208600
X166700Y217200
X184700Y208500
X191200Y203200
X191200Y200200
X191200Y197200
X194200Y197200
X194200Y200200
X194200Y203200
X197200Y203200
X197200Y200200
X197200Y197200
X205700Y211700
X209700Y219200
X197200Y171200
X197200Y168200
X197200Y165200
X194200Y165200
X194200Y168200
X194200Y171200
X191200Y171200
X191200Y168200
X191200Y165200
X198200Y149700
X204700Y149700
X190600Y119200
X174700Y147200
X169700Y146200
X163200Y157200
X169700Y175200
X179700Y250200
X182700Y261200
X182700Y264200
X182700Y267200
X182700Y270200
X182700Y273200
X190700Y355700
X190700Y358700
X190700Y361700
X193700Y361700
X193700Y358700
X193700Y355700
X196700Y355700
X196700Y358700
X196700Y361700
X98200Y248700
X94200Y250200
X175200Y27200
X175200Y24200
X175200Y21200
X178200Y21200
X178200Y24200
X178200Y27200
X181200Y27200
X181200Y24200
X181200Y21200
T03
X61200Y195200
X72700Y299200
X132200Y372700
T04
X127700Y293200
X102700Y293200
X108700Y23200
X93200Y11700
X86700Y21200
T05
X87700Y107200
X87700Y111200
X83700Y111200
X83700Y107200
X78700Y107200
X78700Y111200
X78700Y115700
X83700Y115700
X83700Y121200
X83700Y126700
X83700Y130700
X87700Y130700
X87700Y126700
X91700Y126700
X91700Y130700
X91700Y111200
X91700Y107200
X78700Y121200
X78700Y126700
X78700Y130700
X74700Y130700
X74700Y126700
X70700Y126700
X70700Y130700
X70700Y111200
X70700Y107200
X74700Y107200
X74700Y111200
X115700Y111200
X115700Y107200
X119700Y107200
X119700Y111200
X123700Y111200
X123700Y107200
X128700Y107200
X128700Y111200
X128700Y115700
X123700Y115700
X123700Y121200
X123700Y126700
X123700Y130700
X119700Y130700
X119700Y126700
X115700Y126700
X115700Y130700
X128700Y130700
X128700Y126700
X128700Y121200
X132700Y126700
X132700Y130700
X132700Y111200
X132700Y107200
T06
X129700Y94200
X147200Y101700
X138700Y148200
X192200Y92700
X131700Y19700
X100200Y34200
X84700Y30200
T07
X100826Y12535
X108700Y12535
X116574Y12535
X119137Y389865
X127011Y389865
X111263Y389865
X103389Y389865
X86137Y389865
X78263Y389865
X60637Y389865
X52763Y389865
X35137Y389865
X27263Y389865
X144263Y389865
X152137Y389865
X169389Y389865
X177263Y389865
X185137Y389865
X193011Y389865
T08
X16909Y40050
X16909Y46350
X27539Y21153
X33838Y21153
X38562Y32176
X44861Y32176
T09
X172700Y35500
X172700Y48100
X182500Y48100
X182500Y35500
T10
X126700Y248700
X126700Y258700
X116700Y258700
X116700Y248700
X106700Y248700
X106700Y258700
X41200Y70700
X31200Y70700
T11
X153700Y37500
X201100Y37500
T12
X201550Y249700
X149850Y249700
T13
X194700Y335700
X139700Y49200
X80200Y49200
X25700Y335700
M30
