  0
SECTION
  2
HEADER
  9
$ACADVER
  1
AC1012
  9
$DWGCODEPAGE
  3
undefined
  9
$INSBASE
 10
0.0
 20
0.0
 30
0.0
  9
$EXTMIN
 10
1.000000000000000E+20
 20
1.000000000000000E+20
 30
1.000000000000000E+20
  9
$EXTMAX
 10
-1.000000000000000E+20
 20
-1.000000000000000E+20
 30
-1.000000000000000E+20
  9
$LIMMIN
 10
0.0
 20
0.0
  9
$LIMMAX
 10
12.0
 20
9.0
  9
$ORTHOMODE
 70
     0
  9
$REGENMODE
 70
     1
  9
$FILLMODE
 70
     1
  9
$QTEXTMODE
 70
     0
  9
$MIRRTEXT
 70
     1
  9
$DRAGMODE
 70
     2
  9
$LTSCALE
 40
1.0
  9
$OSMODE
 70
    37
  9
$ATTMODE
 70
     1
  9
$TEXTSIZE
 40
0.2
  9
$TRACEWID
 40
0.05
  9
$TEXTSTYLE
  7
STANDARD
  9
$CLAYER
  8
0
  9
$CELTYPE
  6
BYLAYER
  9
$CECOLOR
 62
   256
  9
$CELTSCALE
 40
1.0
  9
$DELOBJ
 70
     1
  9
$DISPSILH
 70
     0
  9
$DIMSCALE
 40
1.0
  9
$DIMASZ
 40
0.18
  9
$DIMEXO
 40
0.0625
  9
$DIMDLI
 40
0.38
  9
$DIMRND
 40
0.0
  9
$DIMDLE
 40
0.0
  9
$DIMEXE
 40
0.18
  9
$DIMTP
 40
0.0
  9
$DIMTM
 40
0.0
  9
$DIMTXT
 40
0.18
  9
$DIMCEN
 40
0.09
  9
$DIMTSZ
 40
0.0
  9
$DIMTOL
 70
     0
  9
$DIMLIM
 70
     0
  9
$DIMTIH
 70
     1
  9
$DIMTOH
 70
     1
  9
$DIMSE1
 70
     0
  9
$DIMSE2
 70
     0
  9
$DIMTAD
 70
     0
  9
$DIMZIN
 70
     0
  9
$DIMBLK
  1

  9
$DIMASO
 70
     1
  9
$DIMSHO
 70
     1
  9
$DIMPOST
  1

  9
$DIMAPOST
  1

  9
$DIMALT
 70
     0
  9
$DIMALTD
 70
     2
  9
$DIMALTF
 40
25.4
  9
$DIMLFAC
 40
1.0
  9
$DIMTOFL
 70
     0
  9
$DIMTVP
 40
0.0
  9
$DIMTIX
 70
     0
  9
$DIMSOXD
 70
     0
  9
$DIMSAH
 70
     0
  9
$DIMBLK1
  1

  9
$DIMBLK2
  1

  9
$DIMSTYLE
  2
STANDARD
  9
$DIMCLRD
 70
     0
  9
$DIMCLRE
 70
     0
  9
$DIMCLRT
 70
     0
  9
$DIMTFAC
 40
1.0
  9
$DIMGAP
 40
0.09
  9
$DIMJUST
 70
     0
  9
$DIMSD1
 70
     0
  9
$DIMSD2
 70
     0
  9
$DIMTOLJ
 70
     1
  9
$DIMTZIN
 70
     0
  9
$DIMALTZ
 70
     0
  9
$DIMALTTZ
 70
     0
  9
$DIMFIT
 70
     3
  9
$DIMUPT
 70
     0
  9
$DIMUNIT
 70
     2
  9
$DIMDEC
 70
     4
  9
$DIMTDEC
 70
     4
  9
$DIMALTU
 70
     2
  9
$DIMALTTD
 70
     2
  9
$DIMTXSTY
  7
STANDARD
  9
$DIMAUNIT
 70
     0
  9
$LUNITS
 70
     2
  9
$LUPREC
 70
     4
  9
$SKETCHINC
 40
0.1
  9
$FILLETRAD
 40
0.5
  9
$AUNITS
 70
     0
  9
$AUPREC
 70
     0
  9
$MENU
  1
.
  9
$ELEVATION
 40
0.0
  9
$PELEVATION
 40
0.0
  9
$THICKNESS
 40
0.0
  9
$LIMCHECK
 70
     0
  9
$CHAMFERA
 40
0.5
  9
$CHAMFERB
 40
0.5
  9
$CHAMFERC
 40
1.0
  9
$CHAMFERD
 40
0.0
  9
$SKPOLY
 70
     0
  9
$TDCREATE
 40
2457239.566458322
  9
$TDUPDATE
 40
2457239.566458322
  9
$TDINDWG
 40
0.0000000116
  9
$TDUSRTIMER
 40
0.0000000116
  9
$USRTIMER
 70
     1
  9
$ANGBASE
 50
0.0
  9
$ANGDIR
 70
     0
  9
$PDMODE
 70
     0
  9
$PDSIZE
 40
0.0
  9
$PLINEWID
 40
0.0
  9
$COORDS
 70
     1
  9
$SPLFRAME
 70
     0
  9
$SPLINETYPE
 70
     6
  9
$SPLINESEGS
 70
     8
  9
$ATTDIA
 70
     0
  9
$ATTREQ
 70
     1
  9
$HANDLING
 70
     1
  9
$HANDSEED
  5
52
  9
$SURFTAB1
 70
     6
  9
$SURFTAB2
 70
     6
  9
$SURFTYPE
 70
     6
  9
$SURFU
 70
     6
  9
$SURFV
 70
     6
  9
$UCSNAME
  2

  9
$UCSORG
 10
0.0
 20
0.0
 30
0.0
  9
$UCSXDIR
 10
1.0
 20
0.0
 30
0.0
  9
$UCSYDIR
 10
0.0
 20
1.0
 30
0.0
  9
$PUCSNAME
  2

  9
$PUCSORG
 10
0.0
 20
0.0
 30
0.0
  9
$PUCSXDIR
 10
1.0
 20
0.0
 30
0.0
  9
$PUCSYDIR
 10
0.0
 20
1.0
 30
0.0
  9
$USERI1
 70
     0
  9
$USERI2
 70
     0
  9
$USERI3
 70
     0
  9
$USERI4
 70
     0
  9
$USERI5
 70
     0
  9
$USERR1
 40
0.0
  9
$USERR2
 40
0.0
  9
$USERR3
 40
0.0
  9
$USERR4
 40
0.0
  9
$USERR5
 40
0.0
  9
$WORLDVIEW
 70
     1
  9
$SHADEDGE
 70
     3
  9
$SHADEDIF
 70
    70
  9
$TILEMODE
 70
     1
  9
$MAXACTVP
 70
    64
  9
$PINSBASE
 10
0.0
 20
0.0
 30
0.0
  9
$PLIMCHECK
 70
     0
  9
$PEXTMIN
 10
1.000000000000000E+20
 20
1.000000000000000E+20
 30
1.000000000000000E+20
  9
$PEXTMAX
 10
-1.000000000000000E+20
 20
-1.000000000000000E+20
 30
-1.000000000000000E+20
  9
$PLIMMIN
 10
0.0
 20
0.0
  9
$PLIMMAX
 10
12.0
 20
9.0
  9
$UNITMODE
 70
     0
  9
$VISRETAIN
 70
     1
  9
$PLINEGEN
 70
     0
  9
$PSLTSCALE
 70
     1
  9
$TREEDEPTH
 70
  3020
  9
$PICKSTYLE
 70
     1
  9
$CMLSTYLE
  2
STANDARD
  9
$CMLJUST
 70
     0
  9
$CMLSCALE
 40
1.0
  9
$SAVEIMAGES
 70
     1
  0
ENDSEC
  0
SECTION
  2
CLASSES
  0
CLASS
  1
ACDBDICTIONARYWDFLT
  2
AcDbDictionaryWithDefault
  3
ObjectDBX Classes
 90
    32768
280
     0
281
     0
  0
CLASS
  1
VISUALSTYLE
  2
AcDbVisualStyle
  3
ObjectDBX Classes
 90
     4095
280
     0
281
     0
  0
CLASS
  1
MATERIAL
  2
AcDbMaterial
  3
ObjectDBX Classes
 90
     1153
280
     0
281
     0
  0
CLASS
  1
SUN
  2
AcDbSun
  3
SCENEOE
 90
     1024
280
     0
281
     0
  0
CLASS
  1
DICTIONARYVAR
  2
AcDbDictionaryVar
  3
ObjectDBX Classes
 90
        0
280
     0
281
     0
  0
CLASS
  1
XRECORD
  2
AcDbXrecord
  3
AutoCAD 2000
 90
    32768
280
     0
281
     0
  0
CLASS
  1
LWPOLYLINE
  2
AcDbPolyline
  3
AutoCAD 2000
 90
    32768
280
     0
281
     1
  0
CLASS
  1
HATCH
  2
AcDbHatch
  3
AutoCAD 2000
 90
    32768
280
     0
281
     1
  0
CLASS
  1
ACDBPLACEHOLDER
  2
AcDbPlaceHolder
  3
ObjectDBX Classes
 90
        0
280
     0
281
     0
  0
CLASS
  1
LAYOUT
  2
AcDbLayout
  3
ObjectDBX Classes
 90
        0
280
     0
281
     0
  0
ENDSEC
  0
SECTION
  2
TABLES
  0
TABLE
  2
VPORT
  5
8
330
0
100
AcDbSymbolTable
 70
     1
  0
VPORT
  5
29
330
8
100
AcDbSymbolTableRecord
100
AcDbViewportTableRecord
  2
*ACTIVE
 70
     0
 10
0.0
 20
0.0
 11
1.0
 21
1.0
 12
0.0
 22
0.0
 13
0.0
 23
0.0
 14
0.5
 24
0.5
 15
0.5
 25
0.5
 16
0.0
 26
0.0
 36
1.0
 17
105.0007777515277
 27
-148.5000416295416
 37
0.0
 40
297.0000832590831
 41
0.7070757462376333
 42
50.0
 43
0.0
 44
0.0
 50
0.0
 51
0.0
 71
     0
 72
   100
 73
     1
 74
     3
 75
     0
 76
     0
 77
     0
 78
     0
  0
ENDTAB
  0
TABLE
  2
LTYPE
  5
5
330
0
100
AcDbSymbolTable
 70
     1
  0
LTYPE
  5
14
330
5
100
AcDbSymbolTableRecord
100
AcDbLinetypeTableRecord
  2
BYBLOCK
 70
     0
  3

 72
    65
 73
     0
 40
0.0
  0
LTYPE
  5
15
330
5
100
AcDbSymbolTableRecord
100
AcDbLinetypeTableRecord
  2
BYLAYER
 70
     0
  3

 72
    65
 73
     0
 40
0.0
  0
LTYPE
  5
16
330
5
100
AcDbSymbolTableRecord
100
AcDbLinetypeTableRecord
  2
CONTINUOUS
 70
     0
  3
Solid line
 72
    65
 73
     0
 40
0.0
  0
ENDTAB
  0
TABLE
  2
LAYER
  5
2
330
0
100
AcDbSymbolTable
 70
     2
  0
LAYER
  5
10
330
2
100
AcDbSymbolTableRecord
100
AcDbLayerTableRecord
  2
0
 70
     0
 62
     7
  6
CONTINUOUS
  0
LAYER
  5
40
330
2
100
AcDbSymbolTableRecord
100
AcDbLayerTableRecord
  2
LIVELLO_1
 70
     0
 62
     7
  6
CONTINUOUS
  0
ENDTAB
  0
TABLE
  2
STYLE
  5
3
330
0
100
AcDbSymbolTable
 70
     1
  0
STYLE
  5
11
330
3
100
AcDbSymbolTableRecord
100
AcDbTextStyleTableRecord
  2
STANDARD
 70
     0
 40
0.0
 41
1.0
 50
0.0
 71
     0
 42
0.2
  3
txt
  4

  0
ENDTAB
  0
TABLE
  2
VIEW
  5
6
330
0
100
AcDbSymbolTable
 70
     0
  0
ENDTAB
  0
TABLE
  2
UCS
  5
7
330
0
100
AcDbSymbolTable
 70
     0
  0
ENDTAB
  0
TABLE
  2
APPID
  5
9
330
0
100
AcDbSymbolTable
 70
     1
  0
APPID
  5
12
330
9
100
AcDbSymbolTableRecord
100
AcDbRegAppTableRecord
  2
ACAD
 70
     0
  0
ENDTAB
  0
TABLE
  2
DIMSTYLE
  5
A
330
0
100
AcDbSymbolTable
 70
     1
  0
DIMSTYLE
105
27
330
A
100
AcDbSymbolTableRecord
100
AcDbDimStyleTableRecord
  2
STANDARD
 70
     0
  3

  4

  5

  6

  7

 40
1.0
 41
0.18
 42
0.0625
 43
0.38
 44
0.18
 45
0.0
 46
0.0
 47
0.0
 48
0.0
140
0.18
141
0.09
142
0.0
143
25.4
144
1.0
145
0.0
146
1.0
147
0.09
 71
     0
 72
     0
 73
     1
 74
     1
 75
     0
 76
     0
 77
     0
 78
     0
170
     0
171
     2
172
     0
173
     0
174
     0
175
     0
176
     0
177
     0
178
     0
270
     2
271
     4
272
     4
273
     2
274
     2
340
11
275
     0
280
     0
281
     0
282
     0
283
     1
284
     0
285
     0
286
     0
287
     3
288
     0
  0
ENDTAB
  0
TABLE
  2
BLOCK_RECORD
  5
1
330
0
100
AcDbSymbolTable
 70
     2
  0
BLOCK_RECORD
  5
1F
330
1
100
AcDbSymbolTableRecord
100
AcDbBlockTableRecord
  2
*MODEL_SPACE
  0
BLOCK_RECORD
  5
1B
330
1
100
AcDbSymbolTableRecord
100
AcDbBlockTableRecord
  2
*PAPER_SPACE
  0
BLOCK_RECORD
  5
41
330
1
100
AcDbSymbolTableRecord
100
AcDbBlockTableRecord
  2
BLOCK_2
  0
ENDTAB
  0
ENDSEC
  0
SECTION
  2
BLOCKS
  0
BLOCK
  5
20
330
1F
100
AcDbEntity
  8
0
100
AcDbBlockBegin
  2
*MODEL_SPACE
 70
     0
 10
0.0
 20
0.0
 30
0.0
  3
*MODEL_SPACE
  1

  0
ENDBLK
  5
21
330
1F
100
AcDbEntity
  8
0
100
AcDbBlockEnd
  0
BLOCK
  5
1C
330
1B
100
AcDbEntity
 67
     1
  8
0
100
AcDbBlockBegin
  2
*PAPER_SPACE
 70
     0
 10
0.0
 20
0.0
 30
0.0
  3
*PAPER_SPACE
  1

  0
ENDBLK
  5
1D
330
1B
100
AcDbEntity
 67
     1
  8
0
100
AcDbBlockEnd
  0
BLOCK
  5
43
330
41
100
AcDbEntity
  8
0
100
AcDbBlockBegin
  2
BLOCK_2
 70
     0
 10
0.0
 20
0.0
 30
0.0
  3
BLOCK_2
  1

  0
SPLINE
  5
45
330
41
100
AcDbEntity
  8
LIVELLO_1
100
AcDbSpline
210
0.0
220
0.0
230
1.0
 70
    11
 71
     3
 72
   389
 73
   385
 74
     0
 42
0.0000000001
 43
0.0000000001
 12
1.0
 22
0.0
 32
0.0
 13
1.0
 23
0.0
 33
0.0
 40
0.0
 40
0.0
 40
0.0
 40
0.0
 40
1.0
 40
1.0
 40
1.0
 40
2.0
 40
2.0
 40
2.0
 40
3.0
 40
3.0
 40
3.0
 40
4.0
 40
4.0
 40
4.0
 40
5.0
 40
5.0
 40
5.0
 40
6.0
 40
6.0
 40
6.0
 40
7.0
 40
7.0
 40
7.0
 40
8.0
 40
8.0
 40
8.0
 40
9.0
 40
9.0
 40
9.0
 40
10.0
 40
10.0
 40
10.0
 40
11.0
 40
11.0
 40
11.0
 40
12.0
 40
12.0
 40
12.0
 40
13.0
 40
13.0
 40
13.0
 40
14.0
 40
14.0
 40
14.0
 40
15.0
 40
15.0
 40
15.0
 40
16.0
 40
16.0
 40
16.0
 40
17.0
 40
17.0
 40
17.0
 40
18.0
 40
18.0
 40
18.0
 40
19.0
 40
19.0
 40
19.0
 40
20.0
 40
20.0
 40
20.0
 40
21.0
 40
21.0
 40
21.0
 40
22.0
 40
22.0
 40
22.0
 40
23.0
 40
23.0
 40
23.0
 40
24.0
 40
24.0
 40
24.0
 40
25.0
 40
25.0
 40
25.0
 40
26.0
 40
26.0
 40
26.0
 40
27.0
 40
27.0
 40
27.0
 40
28.0
 40
28.0
 40
28.0
 40
29.0
 40
29.0
 40
29.0
 40
30.0
 40
30.0
 40
30.0
 40
31.0
 40
31.0
 40
31.0
 40
32.0
 40
32.0
 40
32.0
 40
33.0
 40
33.0
 40
33.0
 40
34.0
 40
34.0
 40
34.0
 40
35.0
 40
35.0
 40
35.0
 40
36.0
 40
36.0
 40
36.0
 40
37.0
 40
37.0
 40
37.0
 40
38.0
 40
38.0
 40
38.0
 40
39.0
 40
39.0
 40
39.0
 40
40.0
 40
40.0
 40
40.0
 40
41.0
 40
41.0
 40
41.0
 40
42.0
 40
42.0
 40
42.0
 40
43.0
 40
43.0
 40
43.0
 40
44.0
 40
44.0
 40
44.0
 40
45.0
 40
45.0
 40
45.0
 40
46.0
 40
46.0
 40
46.0
 40
47.0
 40
47.0
 40
47.0
 40
48.0
 40
48.0
 40
48.0
 40
49.0
 40
49.0
 40
49.0
 40
50.0
 40
50.0
 40
50.0
 40
51.0
 40
51.0
 40
51.0
 40
52.0
 40
52.0
 40
52.0
 40
53.0
 40
53.0
 40
53.0
 40
54.0
 40
54.0
 40
54.0
 40
55.0
 40
55.0
 40
55.0
 40
56.0
 40
56.0
 40
56.0
 40
57.0
 40
57.0
 40
57.0
 40
58.0
 40
58.0
 40
58.0
 40
59.0
 40
59.0
 40
59.0
 40
60.0
 40
60.0
 40
60.0
 40
61.0
 40
61.0
 40
61.0
 40
62.0
 40
62.0
 40
62.0
 40
63.0
 40
63.0
 40
63.0
 40
64.0
 40
64.0
 40
64.0
 40
65.0
 40
65.0
 40
65.0
 40
66.0
 40
66.0
 40
66.0
 40
67.0
 40
67.0
 40
67.0
 40
68.0
 40
68.0
 40
68.0
 40
69.0
 40
69.0
 40
69.0
 40
70.0
 40
70.0
 40
70.0
 40
71.0
 40
71.0
 40
71.0
 40
72.0
 40
72.0
 40
72.0
 40
73.0
 40
73.0
 40
73.0
 40
74.0
 40
74.0
 40
74.0
 40
75.0
 40
75.0
 40
75.0
 40
76.0
 40
76.0
 40
76.0
 40
77.0
 40
77.0
 40
77.0
 40
78.0
 40
78.0
 40
78.0
 40
79.0
 40
79.0
 40
79.0
 40
80.0
 40
80.0
 40
80.0
 40
81.0
 40
81.0
 40
81.0
 40
82.0
 40
82.0
 40
82.0
 40
83.0
 40
83.0
 40
83.0
 40
84.0
 40
84.0
 40
84.0
 40
85.0
 40
85.0
 40
85.0
 40
86.0
 40
86.0
 40
86.0
 40
87.0
 40
87.0
 40
87.0
 40
88.0
 40
88.0
 40
88.0
 40
89.0
 40
89.0
 40
89.0
 40
90.0
 40
90.0
 40
90.0
 40
91.0
 40
91.0
 40
91.0
 40
92.0
 40
92.0
 40
92.0
 40
93.0
 40
93.0
 40
93.0
 40
94.0
 40
94.0
 40
94.0
 40
95.0
 40
95.0
 40
95.0
 40
96.0
 40
96.0
 40
96.0
 40
97.0
 40
97.0
 40
97.0
 40
98.0
 40
98.0
 40
98.0
 40
99.0
 40
99.0
 40
99.0
 40
100.0
 40
100.0
 40
100.0
 40
101.0
 40
101.0
 40
101.0
 40
102.0
 40
102.0
 40
102.0
 40
103.0
 40
103.0
 40
103.0
 40
104.0
 40
104.0
 40
104.0
 40
105.0
 40
105.0
 40
105.0
 40
106.0
 40
106.0
 40
106.0
 40
107.0
 40
107.0
 40
107.0
 40
108.0
 40
108.0
 40
108.0
 40
109.0
 40
109.0
 40
109.0
 40
110.0
 40
110.0
 40
110.0
 40
111.0
 40
111.0
 40
111.0
 40
112.0
 40
112.0
 40
112.0
 40
113.0
 40
113.0
 40
113.0
 40
114.0
 40
114.0
 40
114.0
 40
115.0
 40
115.0
 40
115.0
 40
116.0
 40
116.0
 40
116.0
 40
117.0
 40
117.0
 40
117.0
 40
118.0
 40
118.0
 40
118.0
 40
119.0
 40
119.0
 40
119.0
 40
120.0
 40
120.0
 40
120.0
 40
121.0
 40
121.0
 40
121.0
 40
122.0
 40
122.0
 40
122.0
 40
123.0
 40
123.0
 40
123.0
 40
124.0
 40
124.0
 40
124.0
 40
125.0
 40
125.0
 40
125.0
 40
126.0
 40
126.0
 40
126.0
 40
127.0
 40
127.0
 40
127.0
 40
128.0
 40
128.0
 40
128.0
 40
128.0
 10
127.3092986094463
 20
-161.2960197066532
 30
0.0
 10
127.3092986094463
 20
-161.4163322018216
 30
0.0
 10
127.3031462677107
 20
-161.5352775137333
 30
0.0
 10
127.2911406562308
 20
-161.6525565696107
 30
0.0
 10
127.279135044751
 20
-161.7698356254881
 30
0.0
 10
127.2612761635268
 20
-161.8854484253312
 30
0.0
 10
127.2378630845505
 20
-161.9990958963632
 30
0.0
 10
127.2144500055742
 20
-162.1127433673953
 30
0.0
 10
127.1854827288457
 20
-162.2244255096162
 30
0.0
 10
127.1512603263557
 20
-162.3338432502486
 30
0.0
 10
127.1170379238657
 20
-162.443260990881
 30
0.0
 10
127.0775603956149
 20
-162.5504143299255
 30
0.0
 10
127.0331268135953
 20
-162.6550041946039
 30
0.0
 10
126.9886932315758
 20
-162.7595940592823
 30
0.0
 10
126.9393035957868
 20
-162.8616204495953
 30
0.0
 10
126.8852569782204
 20
-162.9607842927655
 30
0.0
 10
126.831210360654
 20
-163.0599481359363
 30
0.0
 10
126.7725067613103
 20
-163.1562494319642
 30
0.0
 10
126.7094452521799
 20
-163.2493891080724
 30
0.0
 10
126.6463837430501
 20
-163.3425287841806
 30
0.0
 10
126.5789643241344
 20
-163.4325068403691
 30
0.0
 10
126.5074860674247
 20
-163.5190242038604
 30
0.0
 10
126.436007810715
 20
-163.6055415673517
 30
0.0
 10
126.3604707162107
 20
-163.6885982381459
 30
0.0
 10
126.2811738559038
 20
-163.7678951434666
 30
0.0
 10
126.2018769955969
 20
-163.8471920487874
 30
0.0
 10
126.1188203694875
 20
-163.9227291886342
 30
0.0
 10
126.0323030495676
 20
-163.9942074902294
 30
0.0
 10
125.9457857296476
 20
-164.0656857918247
 30
0.0
 10
125.8558077159165
 20
-164.1331052551691
 30
0.0
 10
125.7626680803662
 20
-164.1961668074852
 30
0.0
 10
125.6695284448153
 20
-164.2592283598007
 30
0.0
 10
125.5732271874459
 20
-164.3179320010884
 30
0.0
 10
125.4740633802488
 20
-164.3719786585711
 30
0.0
 10
125.3748995730516
 20
-164.426025316053
 30
0.0
 10
125.2728732160268
 20
-164.4754149897299
 30
0.0
 10
125.1682833811662
 20
-164.5198486068247
 30
0.0
 10
125.0636935463056
 20
-164.5642822239195
 30
0.0
 10
124.9565402336086
 20
-164.6037597844311
 30
0.0
 10
124.8471225150674
 20
-164.6379822155832
 30
0.0
 10
124.7377047965261
 20
-164.6722046467353
 30
0.0
 10
124.6260226721412
 20
-164.701171948528
 30
0.0
 10
124.5123752139034
 20
-164.7245850481837
 30
0.0
 10
124.3987277556655
 20
-164.7479981478394
 30
0.0
 10
124.2831149635748
 20
-164.7658570453582
 30
0.0
 10
124.1658359096231
 20
-164.7778626679632
 30
0.0
 10
124.0485568556714
 20
-164.7898682905682
 30
0.0
 10
123.9296115398589
 20
-164.7960206382595
 30
0.0
 10
123.8092990341769
 20
-164.7960206382595
 30
0.0
 10
123.8092990341769
 20
-164.7960206382595
 30
0.0
 10
120.9967989818978
 20
-164.7960206382595
 30
0.0
 10
120.9967989818978
 20
-164.7960206382595
 30
0.0
 10
120.9967989818978
 20
-164.7960206382595
 30
0.0
 10
118.1842989296194
 20
-164.7960206382595
 30
0.0
 10
118.1842989296194
 20
-164.7960206382595
 30
0.0
 10
118.1842989296194
 20
-164.7960206382595
 30
0.0
 10
115.3717988773404
 20
-164.7960206382595
 30
0.0
 10
115.3717988773404
 20
-164.7960206382595
 30
0.0
 10
115.3717988773404
 20
-164.7960206382595
 30
0.0
 10
112.5592988250614
 20
-164.7960206382595
 30
0.0
 10
112.5592988250614
 20
-164.7960206382595
 30
0.0
 10
112.5592988250614
 20
-164.7960206382595
 30
0.0
 10
109.746798772783
 20
-164.7960206382595
 30
0.0
 10
109.746798772783
 20
-164.7960206382595
 30
0.0
 10
109.746798772783
 20
-164.7960206382595
 30
0.0
 10
106.9342987205039
 20
-164.7960206382595
 30
0.0
 10
106.9342987205039
 20
-164.7960206382595
 30
0.0
 10
106.9342987205039
 20
-164.7960206382595
 30
0.0
 10
104.1217986682252
 20
-164.7960206382595
 30
0.0
 10
104.1217986682252
 20
-164.7960206382595
 30
0.0
 10
104.1217986682252
 20
-164.7960206382595
 30
0.0
 10
101.3092986159465
 20
-164.7960206382595
 30
0.0
 10
101.3092986159465
 20
-164.7960206382595
 30
0.0
 10
101.3092986159465
 20
-164.7960206382595
 30
0.0
 10
98.49679856366777
 20
-164.7960206382595
 30
0.0
 10
98.49679856366777
 20
-164.7960206382595
 30
0.0
 10
98.49679856366777
 20
-164.7960206382595
 30
0.0
 10
95.68429851138904
 20
-164.7960206382595
 30
0.0
 10
95.68429851138904
 20
-164.7960206382595
 30
0.0
 10
95.68429851138904
 20
-164.7960206382595
 30
0.0
 10
92.87179845911001
 20
-164.7960206382595
 30
0.0
 10
92.87179845911001
 20
-164.7960206382595
 30
0.0
 10
92.87179845911001
 20
-164.7960206382595
 30
0.0
 10
90.05929840683129
 20
-164.7960206382595
 30
0.0
 10
90.05929840683129
 20
-164.7960206382595
 30
0.0
 10
90.05929840683129
 20
-164.7960206382595
 30
0.0
 10
87.24679835455257
 20
-164.7960206382595
 30
0.0
 10
87.24679835455257
 20
-164.7960206382595
 30
0.0
 10
87.24679835455257
 20
-164.7960206382595
 30
0.0
 10
84.43429830227353
 20
-164.7960206382595
 30
0.0
 10
84.43429830227353
 20
-164.7960206382595
 30
0.0
 10
84.43429830227353
 20
-164.7960206382595
 30
0.0
 10
81.62179824999481
 20
-164.7960206382595
 30
0.0
 10
81.62179824999481
 20
-164.7960206382595
 30
0.0
 10
81.62179824999481
 20
-164.7960206382595
 30
0.0
 10
78.8092981977161
 20
-164.7960206382595
 30
0.0
 10
78.8092981977161
 20
-164.7960206382595
 30
0.0
 10
78.68898569203407
 20
-164.7960206382595
 30
0.0
 10
78.57004037622153
 20
-164.7898682905682
 30
0.0
 10
78.45276132226955
 20
-164.7778626679632
 30
0.0
 10
78.33548226831789
 20
-164.7658570453582
 30
0.0
 10
78.21986947622744
 20
-164.7479981478394
 30
0.0
 10
78.10622201798928
 20
-164.7245850481837
 30
0.0
 10
77.9925745597511
 20
-164.701171948528
 30
0.0
 10
77.88089243536587
 20
-164.6722046467353
 30
0.0
 10
77.77147471682493
 20
-164.6379822155832
 30
0.0
 10
77.662056998284
 20
-164.6037597844311
 30
0.0
 10
77.55490368558738
 20
-164.5642822239195
 30
0.0
 10
77.45031385072647
 20
-164.5198486068247
 30
0.0
 10
77.34572401586556
 20
-164.4754149897299
 30
0.0
 10
77.243697658841
 20
-164.426025316053
 30
0.0
 10
77.14453385164386
 20
-164.3719786585711
 30
0.0
 10
77.0453700444464
 20
-164.3179320010884
 30
0.0
 10
76.94906878707701
 20
-164.2592283598007
 30
0.0
 10
76.85592915152674
 20
-164.1961668074852
 30
0.0
 10
76.76278951597648
 20
-164.1331052551691
 30
0.0
 10
76.67281150224535
 20
-164.0656857918247
 30
0.0
 10
76.5862941823254
 20
-163.9942074902294
 30
0.0
 10
76.49977686240513
 20
-163.9227291886342
 30
0.0
 10
76.41672023629602
 20
-163.8471920487874
 30
0.0
 10
76.33742337598916
 20
-163.7678951434666
 30
0.0
 10
76.25812651568229
 20
-163.6885982381459
 30
0.0
 10
76.18258942117832
 20
-163.6055415673517
 30
0.0
 10
76.1111111644683
 20
-163.5190242038604
 30
0.0
 10
76.03963290775859
 20
-163.4325068403691
 30
0.0
 10
75.97221348884284
 20
-163.3425287841806
 30
0.0
 10
75.90915197971309
 20
-163.2493891080724
 30
0.0
 10
75.84609047058333
 20
-163.1562494319642
 30
0.0
 10
75.78738687123958
 20
-163.0599481359363
 30
0.0
 10
75.73334025367288
 20
-162.9607842927655
 30
0.0
 10
75.67929363610651
 20
-162.8616204495953
 30
0.0
 10
75.62990400031784
 20
-162.7595940592823
 30
0.0
 10
75.58547041829794
 20
-162.6550041946039
 30
0.0
 10
75.54103683627805
 20
-162.5504143299255
 30
0.0
 10
75.50155930802757
 20
-162.443260990881
 30
0.0
 10
75.46733690553792
 20
-162.3338432502486
 30
0.0
 10
75.43311450304826
 20
-162.2244255096162
 30
0.0
 10
75.40414722631941
 20
-162.1127433673953
 30
0.0
 10
75.38073414734276
 20
-161.9990958963632
 30
0.0
 10
75.35732106836612
 20
-161.8854484253312
 30
0.0
 10
75.33946218714233
 20
-161.7698356254881
 30
0.0
 10
75.32745657566245
 20
-161.6525565696107
 30
0.0
 10
75.31545096418226
 20
-161.5352775137333
 30
0.0
 10
75.30929862244662
 20
-161.4163322018216
 30
0.0
 10
75.30929862244662
 20
-161.2960197066532
 30
0.0
 10
75.30929862244662
 20
-161.2960197066532
 30
0.0
 10
75.30929862244662
 20
-155.4835198246662
 30
0.0
 10
75.30929862244662
 20
-155.4835198246662
 30
0.0
 10
75.30929862244662
 20
-155.4835198246662
 30
0.0
 10
75.30929862244662
 20
-149.6710199426799
 30
0.0
 10
75.30929862244662
 20
-149.6710199426799
 30
0.0
 10
75.30929862244662
 20
-149.6710199426799
 30
0.0
 10
75.30929862244662
 20
-143.8585200606932
 30
0.0
 10
75.30929862244662
 20
-143.8585200606932
 30
0.0
 10
75.30929862244662
 20
-143.8585200606932
 30
0.0
 10
75.30929862244662
 20
-138.0460201787066
 30
0.0
 10
75.30929862244662
 20
-138.0460201787066
 30
0.0
 10
75.30929862244662
 20
-138.0460201787066
 30
0.0
 10
75.30929862244662
 20
-132.2335202967199
 30
0.0
 10
75.30929862244662
 20
-132.2335202967199
 30
0.0
 10
75.30929862244662
 20
-132.2335202967199
 30
0.0
 10
75.30929862244662
 20
-126.4210204147332
 30
0.0
 10
75.30929862244662
 20
-126.4210204147332
 30
0.0
 10
75.30929862244662
 20
-126.4210204147332
 30
0.0
 10
75.30929862244662
 20
-120.6085205327463
 30
0.0
 10
75.30929862244662
 20
-120.6085205327463
 30
0.0
 10
75.30929862244662
 20
-120.6085205327463
 30
0.0
 10
75.30929862244662
 20
-114.7960206507596
 30
0.0
 10
75.30929862244662
 20
-114.7960206507596
 30
0.0
 10
75.30929862244662
 20
-114.7960206507596
 30
0.0
 10
75.30929862244662
 20
-108.9835207687729
 30
0.0
 10
75.30929862244662
 20
-108.9835207687729
 30
0.0
 10
75.30929862244662
 20
-108.9835207687729
 30
0.0
 10
75.30929862244662
 20
-103.171020886786
 30
0.0
 10
75.30929862244662
 20
-103.171020886786
 30
0.0
 10
75.30929862244662
 20
-103.171020886786
 30
0.0
 10
75.30929862244662
 20
-97.3585210047993
 30
0.0
 10
75.30929862244662
 20
-97.3585210047993
 30
0.0
 10
75.30929862244662
 20
-97.3585210047993
 30
0.0
 10
75.30929862244662
 20
-91.54602112281265
 30
0.0
 10
75.30929862244662
 20
-91.54602112281265
 30
0.0
 10
75.30929862244662
 20
-91.54602112281265
 30
0.0
 10
75.30929862244662
 20
-85.733521240826
 30
0.0
 10
75.30929862244662
 20
-85.733521240826
 30
0.0
 10
75.30929862244662
 20
-85.733521240826
 30
0.0
 10
75.30929862244662
 20
-79.92102135883933
 30
0.0
 10
75.30929862244662
 20
-79.92102135883933
 30
0.0
 10
75.30929862244662
 20
-79.92102135883933
 30
0.0
 10
75.30929862244662
 20
-74.10852147685267
 30
0.0
 10
75.30929862244662
 20
-74.10852147685267
 30
0.0
 10
75.30929862244662
 20
-74.10852147685267
 30
0.0
 10
75.30929862244662
 20
-68.29602159486602
 30
0.0
 10
75.30929862244662
 20
-68.29602159486602
 30
0.0
 10
75.30929862244662
 20
-68.17570909969758
 30
0.0
 10
75.31545096418226
 20
-68.05676378778593
 30
0.0
 10
75.32745657566245
 20
-67.93948473190854
 30
0.0
 10
75.33946218714233
 20
-67.82220567603115
 30
0.0
 10
75.35732106836612
 20
-67.70659287618801
 30
0.0
 10
75.38073414734276
 20
-67.59294540515596
 30
0.0
 10
75.40414722631941
 20
-67.47929793412392
 30
0.0
 10
75.43311450304826
 20
-67.36761579190298
 30
0.0
 10
75.46733690553792
 20
-67.25819805127058
 30
0.0
 10
75.50155930802757
 20
-67.1487803106382
 30
0.0
 10
75.54103683627805
 20
-67.04162697159438
 30
0.0
 10
75.58547041829794
 20
-66.93703710691565
 30
0.0
 10
75.62990400031784
 20
-66.83244724223691
 30
0.0
 10
75.67929363610651
 20
-66.7304208519239
 30
0.0
 10
75.73334025367288
 20
-66.63125700875342
 30
0.0
 10
75.78738687123958
 20
-66.53209316558295
 30
0.0
 10
75.84609047058333
 20
-66.43579186955505
 30
0.0
 10
75.90915197971309
 20
-66.34265219344684
 30
0.0
 10
75.97221348884284
 20
-66.24951251733863
 30
0.0
 10
76.03963290775859
 20
-66.15953446115013
 30
0.0
 10
76.1111111644683
 20
-66.0730170976588
 30
0.0
 10
76.18258942117832
 20
-65.98649973416748
 30
0.0
 10
76.25812651568229
 20
-65.9034430633727
 30
0.0
 10
76.33742337598916
 20
-65.82414615805226
 30
0.0
 10
76.41672023629602
 20
-65.74484925273181
 30
0.0
 10
76.49977686240513
 20
-65.66931211288505
 30
0.0
 10
76.5862941823254
 20
-65.59783381128979
 30
0.0
 10
76.67281150224535
 20
-65.52635550969453
 30
0.0
 10
76.76278951597648
 20
-65.4589360463501
 30
0.0
 10
76.85592915152674
 20
-65.395874494034
 30
0.0
 10
76.94906878707701
 20
-65.3328129417179
 30
0.0
 10
77.0453700444464
 20
-65.27410930043013
 30
0.0
 10
77.14453385164386
 20
-65.22006264294782
 30
0.0
 10
77.243697658841
 20
-65.16601598546552
 30
0.0
 10
77.34572401586556
 20
-65.11662631178869
 30
0.0
 10
77.45031385072647
 20
-65.07219269469418
 30
0.0
 10
77.55490368558738
 20
-65.02775907759965
 30
0.0
 10
77.662056998284
 20
-64.98828151708808
 30
0.0
 10
77.77147471682493
 20
-64.95405908593597
 30
0.0
 10
77.88089243536587
 20
-64.91983665478386
 30
0.0
 10
77.9925745597511
 20
-64.89086935299122
 30
0.0
 10
78.10622201798928
 20
-64.8674562533355
 30
0.0
 10
78.21986947622744
 20
-64.84404315367978
 30
0.0
 10
78.33548226831789
 20
-64.826184256161
 30
0.0
 10
78.45276132226955
 20
-64.814178633556
 30
0.0
 10
78.57004037622153
 20
-64.80217301095098
 30
0.0
 10
78.68898569203407
 20
-64.79602066325974
 30
0.0
 10
78.8092981977161
 20
-64.79602066325974
 30
0.0
 10
78.8092981977161
 20
-64.79602066325974
 30
0.0
 10
81.62179824999481
 20
-64.79602066325974
 30
0.0
 10
81.62179824999481
 20
-64.79602066325974
 30
0.0
 10
81.62179824999481
 20
-64.79602066325974
 30
0.0
 10
84.43429830227353
 20
-64.79602066325974
 30
0.0
 10
84.43429830227353
 20
-64.79602066325974
 30
0.0
 10
84.43429830227353
 20
-64.79602066325974
 30
0.0
 10
87.24679835455257
 20
-64.79602066325974
 30
0.0
 10
87.24679835455257
 20
-64.79602066325974
 30
0.0
 10
87.24679835455257
 20
-64.79602066325974
 30
0.0
 10
90.05929840683129
 20
-64.79602066325974
 30
0.0
 10
90.05929840683129
 20
-64.79602066325974
 30
0.0
 10
90.05929840683129
 20
-64.79602066325974
 30
0.0
 10
92.87179845911001
 20
-64.79602066325974
 30
0.0
 10
92.87179845911001
 20
-64.79602066325974
 30
0.0
 10
92.87179845911001
 20
-64.79602066325974
 30
0.0
 10
95.68429851138904
 20
-64.79602066325974
 30
0.0
 10
95.68429851138904
 20
-64.79602066325974
 30
0.0
 10
95.68429851138904
 20
-64.79602066325974
 30
0.0
 10
98.49679856366777
 20
-64.79602066325974
 30
0.0
 10
98.49679856366777
 20
-64.79602066325974
 30
0.0
 10
98.49679856366777
 20
-64.79602066325974
 30
0.0
 10
101.3092986159465
 20
-64.79602066325974
 30
0.0
 10
101.3092986159465
 20
-64.79602066325974
 30
0.0
 10
101.3092986159465
 20
-64.79602066325974
 30
0.0
 10
104.1217986682252
 20
-64.79602066325974
 30
0.0
 10
104.1217986682252
 20
-64.79602066325974
 30
0.0
 10
104.1217986682252
 20
-64.79602066325974
 30
0.0
 10
106.9342987205039
 20
-64.79602066325974
 30
0.0
 10
106.9342987205039
 20
-64.79602066325974
 30
0.0
 10
106.9342987205039
 20
-64.79602066325974
 30
0.0
 10
109.746798772783
 20
-64.79602066325974
 30
0.0
 10
109.746798772783
 20
-64.79602066325974
 30
0.0
 10
109.746798772783
 20
-64.79602066325974
 30
0.0
 10
112.5592988250614
 20
-64.79602066325974
 30
0.0
 10
112.5592988250614
 20
-64.79602066325974
 30
0.0
 10
112.5592988250614
 20
-64.79602066325974
 30
0.0
 10
115.3717988773404
 20
-64.79602066325974
 30
0.0
 10
115.3717988773404
 20
-64.79602066325974
 30
0.0
 10
115.3717988773404
 20
-64.79602066325974
 30
0.0
 10
118.1842989296194
 20
-64.79602066325974
 30
0.0
 10
118.1842989296194
 20
-64.79602066325974
 30
0.0
 10
118.1842989296194
 20
-64.79602066325974
 30
0.0
 10
120.9967989818978
 20
-64.79602066325974
 30
0.0
 10
120.9967989818978
 20
-64.79602066325974
 30
0.0
 10
120.9967989818978
 20
-64.79602066325974
 30
0.0
 10
123.8092990341769
 20
-64.79602066325974
 30
0.0
 10
123.8092990341769
 20
-64.79602066325974
 30
0.0
 10
123.9296115398589
 20
-64.79602066325974
 30
0.0
 10
124.0485568556714
 20
-64.80217301095098
 30
0.0
 10
124.1658359096231
 20
-64.814178633556
 30
0.0
 10
124.2831149635748
 20
-64.826184256161
 30
0.0
 10
124.3987277556655
 20
-64.84404315367978
 30
0.0
 10
124.5123752139034
 20
-64.8674562533355
 30
0.0
 10
124.6260226721412
 20
-64.89086935299122
 30
0.0
 10
124.7377047965261
 20
-64.91983665478386
 30
0.0
 10
124.8471225150674
 20
-64.95405908593597
 30
0.0
 10
124.9565402336086
 20
-64.98828151708808
 30
0.0
 10
125.0636935463056
 20
-65.02775907759965
 30
0.0
 10
125.1682833811662
 20
-65.07219269469418
 30
0.0
 10
125.2728732160268
 20
-65.11662631178869
 30
0.0
 10
125.3748995730516
 20
-65.16601598546552
 30
0.0
 10
125.4740633802488
 20
-65.22006264294782
 30
0.0
 10
125.5732271874459
 20
-65.27410930043013
 30
0.0
 10
125.6695284448153
 20
-65.3328129417179
 30
0.0
 10
125.7626680803662
 20
-65.395874494034
 30
0.0
 10
125.8558077159165
 20
-65.4589360463501
 30
0.0
 10
125.9457857296476
 20
-65.52635550969453
 30
0.0
 10
126.0323030495676
 20
-65.59783381128979
 30
0.0
 10
126.1188203694875
 20
-65.66931211288505
 30
0.0
 10
126.2018769955969
 20
-65.74484925273181
 30
0.0
 10
126.2811738559038
 20
-65.82414615805226
 30
0.0
 10
126.3604707162107
 20
-65.9034430633727
 30
0.0
 10
126.436007810715
 20
-65.98649973416748
 30
0.0
 10
126.5074860674247
 20
-66.0730170976588
 30
0.0
 10
126.5789643241344
 20
-66.15953446115013
 30
0.0
 10
126.6463837430501
 20
-66.24951251733863
 30
0.0
 10
126.7094452521799
 20
-66.34265219344684
 30
0.0
 10
126.7725067613103
 20
-66.43579186955505
 30
0.0
 10
126.831210360654
 20
-66.53209316558295
 30
0.0
 10
126.8852569782204
 20
-66.63125700875342
 30
0.0
 10
126.9393035957868
 20
-66.7304208519239
 30
0.0
 10
126.9886932315758
 20
-66.83244724223691
 30
0.0
 10
127.0331268135953
 20
-66.93703710691565
 30
0.0
 10
127.0775603956149
 20
-67.04162697159438
 30
0.0
 10
127.1170379238657
 20
-67.1487803106382
 30
0.0
 10
127.1512603263557
 20
-67.25819805127058
 30
0.0
 10
127.1854827288457
 20
-67.36761579190298
 30
0.0
 10
127.2144500055742
 20
-67.47929793412392
 30
0.0
 10
127.2378630845505
 20
-67.59294540515596
 30
0.0
 10
127.2612761635268
 20
-67.70659287618801
 30
0.0
 10
127.279135044751
 20
-67.82220567603115
 30
0.0
 10
127.2911406562308
 20
-67.93948473190854
 30
0.0
 10
127.3031462677107
 20
-68.05676378778593
 30
0.0
 10
127.3092986094463
 20
-68.17570909969758
 30
0.0
 10
127.3092986094463
 20
-68.29602159486602
 30
0.0
 10
127.3092986094463
 20
-68.29602159486602
 30
0.0
 10
127.3092986094463
 20
-74.10852147685267
 30
0.0
 10
127.3092986094463
 20
-74.10852147685267
 30
0.0
 10
127.3092986094463
 20
-74.10852147685267
 30
0.0
 10
127.3092986094463
 20
-79.92102135883933
 30
0.0
 10
127.3092986094463
 20
-79.92102135883933
 30
0.0
 10
127.3092986094463
 20
-79.92102135883933
 30
0.0
 10
127.3092986094463
 20
-85.733521240826
 30
0.0
 10
127.3092986094463
 20
-85.733521240826
 30
0.0
 10
127.3092986094463
 20
-85.733521240826
 30
0.0
 10
127.3092986094463
 20
-91.54602112281265
 30
0.0
 10
127.3092986094463
 20
-91.54602112281265
 30
0.0
 10
127.3092986094463
 20
-91.54602112281265
 30
0.0
 10
127.3092986094463
 20
-97.3585210047993
 30
0.0
 10
127.3092986094463
 20
-97.3585210047993
 30
0.0
 10
127.3092986094463
 20
-97.3585210047993
 30
0.0
 10
127.3092986094463
 20
-103.171020886786
 30
0.0
 10
127.3092986094463
 20
-103.171020886786
 30
0.0
 10
127.3092986094463
 20
-103.171020886786
 30
0.0
 10
127.3092986094463
 20
-108.9835207687729
 30
0.0
 10
127.3092986094463
 20
-108.9835207687729
 30
0.0
 10
127.3092986094463
 20
-108.9835207687729
 30
0.0
 10
127.3092986094463
 20
-114.7960206507596
 30
0.0
 10
127.3092986094463
 20
-114.7960206507596
 30
0.0
 10
127.3092986094463
 20
-114.7960206507596
 30
0.0
 10
127.3092986094463
 20
-120.6085205327463
 30
0.0
 10
127.3092986094463
 20
-120.6085205327463
 30
0.0
 10
127.3092986094463
 20
-120.6085205327463
 30
0.0
 10
127.3092986094463
 20
-126.4210204147332
 30
0.0
 10
127.3092986094463
 20
-126.4210204147332
 30
0.0
 10
127.3092986094463
 20
-126.4210204147332
 30
0.0
 10
127.3092986094463
 20
-132.2335202967199
 30
0.0
 10
127.3092986094463
 20
-132.2335202967199
 30
0.0
 10
127.3092986094463
 20
-132.2335202967199
 30
0.0
 10
127.3092986094463
 20
-138.0460201787066
 30
0.0
 10
127.3092986094463
 20
-138.0460201787066
 30
0.0
 10
127.3092986094463
 20
-138.0460201787066
 30
0.0
 10
127.3092986094463
 20
-143.8585200606932
 30
0.0
 10
127.3092986094463
 20
-143.8585200606932
 30
0.0
 10
127.3092986094463
 20
-143.8585200606932
 30
0.0
 10
127.3092986094463
 20
-149.6710199426799
 30
0.0
 10
127.3092986094463
 20
-149.6710199426799
 30
0.0
 10
127.3092986094463
 20
-149.6710199426799
 30
0.0
 10
127.3092986094463
 20
-155.4835198246662
 30
0.0
 10
127.3092986094463
 20
-155.4835198246662
 30
0.0
 10
127.3092986094463
 20
-155.4835198246662
 30
0.0
 10
127.3092986094463
 20
-161.2960197066532
 30
0.0
 10
127.3092986094463
 20
-161.2960197066532
 30
0.0
  0
SPLINE
  5
46
330
41
100
AcDbEntity
  8
LIVELLO_1
 62
   250
100
AcDbSpline
210
0.0
220
0.0
230
1.0
 70
    11
 71
     3
 72
   389
 73
   385
 74
     0
 42
0.0000000001
 43
0.0000000001
 12
1.0
 22
0.0
 32
0.0
 13
1.0
 23
0.0
 33
0.0
 40
0.0
 40
0.0
 40
0.0
 40
0.0
 40
1.0
 40
1.0
 40
1.0
 40
2.0
 40
2.0
 40
2.0
 40
3.0
 40
3.0
 40
3.0
 40
4.0
 40
4.0
 40
4.0
 40
5.0
 40
5.0
 40
5.0
 40
6.0
 40
6.0
 40
6.0
 40
7.0
 40
7.0
 40
7.0
 40
8.0
 40
8.0
 40
8.0
 40
9.0
 40
9.0
 40
9.0
 40
10.0
 40
10.0
 40
10.0
 40
11.0
 40
11.0
 40
11.0
 40
12.0
 40
12.0
 40
12.0
 40
13.0
 40
13.0
 40
13.0
 40
14.0
 40
14.0
 40
14.0
 40
15.0
 40
15.0
 40
15.0
 40
16.0
 40
16.0
 40
16.0
 40
17.0
 40
17.0
 40
17.0
 40
18.0
 40
18.0
 40
18.0
 40
19.0
 40
19.0
 40
19.0
 40
20.0
 40
20.0
 40
20.0
 40
21.0
 40
21.0
 40
21.0
 40
22.0
 40
22.0
 40
22.0
 40
23.0
 40
23.0
 40
23.0
 40
24.0
 40
24.0
 40
24.0
 40
25.0
 40
25.0
 40
25.0
 40
26.0
 40
26.0
 40
26.0
 40
27.0
 40
27.0
 40
27.0
 40
28.0
 40
28.0
 40
28.0
 40
29.0
 40
29.0
 40
29.0
 40
30.0
 40
30.0
 40
30.0
 40
31.0
 40
31.0
 40
31.0
 40
32.0
 40
32.0
 40
32.0
 40
33.0
 40
33.0
 40
33.0
 40
34.0
 40
34.0
 40
34.0
 40
35.0
 40
35.0
 40
35.0
 40
36.0
 40
36.0
 40
36.0
 40
37.0
 40
37.0
 40
37.0
 40
38.0
 40
38.0
 40
38.0
 40
39.0
 40
39.0
 40
39.0
 40
40.0
 40
40.0
 40
40.0
 40
41.0
 40
41.0
 40
41.0
 40
42.0
 40
42.0
 40
42.0
 40
43.0
 40
43.0
 40
43.0
 40
44.0
 40
44.0
 40
44.0
 40
45.0
 40
45.0
 40
45.0
 40
46.0
 40
46.0
 40
46.0
 40
47.0
 40
47.0
 40
47.0
 40
48.0
 40
48.0
 40
48.0
 40
49.0
 40
49.0
 40
49.0
 40
50.0
 40
50.0
 40
50.0
 40
51.0
 40
51.0
 40
51.0
 40
52.0
 40
52.0
 40
52.0
 40
53.0
 40
53.0
 40
53.0
 40
54.0
 40
54.0
 40
54.0
 40
55.0
 40
55.0
 40
55.0
 40
56.0
 40
56.0
 40
56.0
 40
57.0
 40
57.0
 40
57.0
 40
58.0
 40
58.0
 40
58.0
 40
59.0
 40
59.0
 40
59.0
 40
60.0
 40
60.0
 40
60.0
 40
61.0
 40
61.0
 40
61.0
 40
62.0
 40
62.0
 40
62.0
 40
63.0
 40
63.0
 40
63.0
 40
64.0
 40
64.0
 40
64.0
 40
65.0
 40
65.0
 40
65.0
 40
66.0
 40
66.0
 40
66.0
 40
67.0
 40
67.0
 40
67.0
 40
68.0
 40
68.0
 40
68.0
 40
69.0
 40
69.0
 40
69.0
 40
70.0
 40
70.0
 40
70.0
 40
71.0
 40
71.0
 40
71.0
 40
72.0
 40
72.0
 40
72.0
 40
73.0
 40
73.0
 40
73.0
 40
74.0
 40
74.0
 40
74.0
 40
75.0
 40
75.0
 40
75.0
 40
76.0
 40
76.0
 40
76.0
 40
77.0
 40
77.0
 40
77.0
 40
78.0
 40
78.0
 40
78.0
 40
79.0
 40
79.0
 40
79.0
 40
80.0
 40
80.0
 40
80.0
 40
81.0
 40
81.0
 40
81.0
 40
82.0
 40
82.0
 40
82.0
 40
83.0
 40
83.0
 40
83.0
 40
84.0
 40
84.0
 40
84.0
 40
85.0
 40
85.0
 40
85.0
 40
86.0
 40
86.0
 40
86.0
 40
87.0
 40
87.0
 40
87.0
 40
88.0
 40
88.0
 40
88.0
 40
89.0
 40
89.0
 40
89.0
 40
90.0
 40
90.0
 40
90.0
 40
91.0
 40
91.0
 40
91.0
 40
92.0
 40
92.0
 40
92.0
 40
93.0
 40
93.0
 40
93.0
 40
94.0
 40
94.0
 40
94.0
 40
95.0
 40
95.0
 40
95.0
 40
96.0
 40
96.0
 40
96.0
 40
97.0
 40
97.0
 40
97.0
 40
98.0
 40
98.0
 40
98.0
 40
99.0
 40
99.0
 40
99.0
 40
100.0
 40
100.0
 40
100.0
 40
101.0
 40
101.0
 40
101.0
 40
102.0
 40
102.0
 40
102.0
 40
103.0
 40
103.0
 40
103.0
 40
104.0
 40
104.0
 40
104.0
 40
105.0
 40
105.0
 40
105.0
 40
106.0
 40
106.0
 40
106.0
 40
107.0
 40
107.0
 40
107.0
 40
108.0
 40
108.0
 40
108.0
 40
109.0
 40
109.0
 40
109.0
 40
110.0
 40
110.0
 40
110.0
 40
111.0
 40
111.0
 40
111.0
 40
112.0
 40
112.0
 40
112.0
 40
113.0
 40
113.0
 40
113.0
 40
114.0
 40
114.0
 40
114.0
 40
115.0
 40
115.0
 40
115.0
 40
116.0
 40
116.0
 40
116.0
 40
117.0
 40
117.0
 40
117.0
 40
118.0
 40
118.0
 40
118.0
 40
119.0
 40
119.0
 40
119.0
 40
120.0
 40
120.0
 40
120.0
 40
121.0
 40
121.0
 40
121.0
 40
122.0
 40
122.0
 40
122.0
 40
123.0
 40
123.0
 40
123.0
 40
124.0
 40
124.0
 40
124.0
 40
125.0
 40
125.0
 40
125.0
 40
126.0
 40
126.0
 40
126.0
 40
127.0
 40
127.0
 40
127.0
 40
128.0
 40
128.0
 40
128.0
 40
128.0
 10
127.3092986094463
 20
-161.2960197066532
 30
0.0
 10
127.3092986094463
 20
-161.4163322018216
 30
0.0
 10
127.3031462677107
 20
-161.5352775137333
 30
0.0
 10
127.2911406562308
 20
-161.6525565696107
 30
0.0
 10
127.279135044751
 20
-161.7698356254881
 30
0.0
 10
127.2612761635268
 20
-161.8854484253312
 30
0.0
 10
127.2378630845505
 20
-161.9990958963632
 30
0.0
 10
127.2144500055742
 20
-162.1127433673953
 30
0.0
 10
127.1854827288457
 20
-162.2244255096162
 30
0.0
 10
127.1512603263557
 20
-162.3338432502486
 30
0.0
 10
127.1170379238657
 20
-162.443260990881
 30
0.0
 10
127.0775603956149
 20
-162.5504143299255
 30
0.0
 10
127.0331268135953
 20
-162.6550041946039
 30
0.0
 10
126.9886932315758
 20
-162.7595940592823
 30
0.0
 10
126.9393035957868
 20
-162.8616204495953
 30
0.0
 10
126.8852569782204
 20
-162.9607842927655
 30
0.0
 10
126.831210360654
 20
-163.0599481359363
 30
0.0
 10
126.7725067613103
 20
-163.1562494319642
 30
0.0
 10
126.7094452521799
 20
-163.2493891080724
 30
0.0
 10
126.6463837430501
 20
-163.3425287841806
 30
0.0
 10
126.5789643241344
 20
-163.4325068403691
 30
0.0
 10
126.5074860674247
 20
-163.5190242038604
 30
0.0
 10
126.436007810715
 20
-163.6055415673517
 30
0.0
 10
126.3604707162107
 20
-163.6885982381459
 30
0.0
 10
126.2811738559038
 20
-163.7678951434666
 30
0.0
 10
126.2018769955969
 20
-163.8471920487874
 30
0.0
 10
126.1188203694875
 20
-163.9227291886342
 30
0.0
 10
126.0323030495676
 20
-163.9942074902294
 30
0.0
 10
125.9457857296476
 20
-164.0656857918247
 30
0.0
 10
125.8558077159165
 20
-164.1331052551691
 30
0.0
 10
125.7626680803662
 20
-164.1961668074852
 30
0.0
 10
125.6695284448153
 20
-164.2592283598007
 30
0.0
 10
125.5732271874459
 20
-164.3179320010884
 30
0.0
 10
125.4740633802488
 20
-164.3719786585711
 30
0.0
 10
125.3748995730516
 20
-164.426025316053
 30
0.0
 10
125.2728732160268
 20
-164.4754149897299
 30
0.0
 10
125.1682833811662
 20
-164.5198486068247
 30
0.0
 10
125.0636935463056
 20
-164.5642822239195
 30
0.0
 10
124.9565402336086
 20
-164.6037597844311
 30
0.0
 10
124.8471225150674
 20
-164.6379822155832
 30
0.0
 10
124.7377047965261
 20
-164.6722046467353
 30
0.0
 10
124.6260226721412
 20
-164.701171948528
 30
0.0
 10
124.5123752139034
 20
-164.7245850481837
 30
0.0
 10
124.3987277556655
 20
-164.7479981478394
 30
0.0
 10
124.2831149635748
 20
-164.7658570453582
 30
0.0
 10
124.1658359096231
 20
-164.7778626679632
 30
0.0
 10
124.0485568556714
 20
-164.7898682905682
 30
0.0
 10
123.9296115398589
 20
-164.7960206382595
 30
0.0
 10
123.8092990341769
 20
-164.7960206382595
 30
0.0
 10
123.8092990341769
 20
-164.7960206382595
 30
0.0
 10
120.9967989818978
 20
-164.7960206382595
 30
0.0
 10
120.9967989818978
 20
-164.7960206382595
 30
0.0
 10
120.9967989818978
 20
-164.7960206382595
 30
0.0
 10
118.1842989296194
 20
-164.7960206382595
 30
0.0
 10
118.1842989296194
 20
-164.7960206382595
 30
0.0
 10
118.1842989296194
 20
-164.7960206382595
 30
0.0
 10
115.3717988773404
 20
-164.7960206382595
 30
0.0
 10
115.3717988773404
 20
-164.7960206382595
 30
0.0
 10
115.3717988773404
 20
-164.7960206382595
 30
0.0
 10
112.5592988250614
 20
-164.7960206382595
 30
0.0
 10
112.5592988250614
 20
-164.7960206382595
 30
0.0
 10
112.5592988250614
 20
-164.7960206382595
 30
0.0
 10
109.746798772783
 20
-164.7960206382595
 30
0.0
 10
109.746798772783
 20
-164.7960206382595
 30
0.0
 10
109.746798772783
 20
-164.7960206382595
 30
0.0
 10
106.9342987205039
 20
-164.7960206382595
 30
0.0
 10
106.9342987205039
 20
-164.7960206382595
 30
0.0
 10
106.9342987205039
 20
-164.7960206382595
 30
0.0
 10
104.1217986682252
 20
-164.7960206382595
 30
0.0
 10
104.1217986682252
 20
-164.7960206382595
 30
0.0
 10
104.1217986682252
 20
-164.7960206382595
 30
0.0
 10
101.3092986159465
 20
-164.7960206382595
 30
0.0
 10
101.3092986159465
 20
-164.7960206382595
 30
0.0
 10
101.3092986159465
 20
-164.7960206382595
 30
0.0
 10
98.49679856366777
 20
-164.7960206382595
 30
0.0
 10
98.49679856366777
 20
-164.7960206382595
 30
0.0
 10
98.49679856366777
 20
-164.7960206382595
 30
0.0
 10
95.68429851138904
 20
-164.7960206382595
 30
0.0
 10
95.68429851138904
 20
-164.7960206382595
 30
0.0
 10
95.68429851138904
 20
-164.7960206382595
 30
0.0
 10
92.87179845911001
 20
-164.7960206382595
 30
0.0
 10
92.87179845911001
 20
-164.7960206382595
 30
0.0
 10
92.87179845911001
 20
-164.7960206382595
 30
0.0
 10
90.05929840683129
 20
-164.7960206382595
 30
0.0
 10
90.05929840683129
 20
-164.7960206382595
 30
0.0
 10
90.05929840683129
 20
-164.7960206382595
 30
0.0
 10
87.24679835455257
 20
-164.7960206382595
 30
0.0
 10
87.24679835455257
 20
-164.7960206382595
 30
0.0
 10
87.24679835455257
 20
-164.7960206382595
 30
0.0
 10
84.43429830227353
 20
-164.7960206382595
 30
0.0
 10
84.43429830227353
 20
-164.7960206382595
 30
0.0
 10
84.43429830227353
 20
-164.7960206382595
 30
0.0
 10
81.62179824999481
 20
-164.7960206382595
 30
0.0
 10
81.62179824999481
 20
-164.7960206382595
 30
0.0
 10
81.62179824999481
 20
-164.7960206382595
 30
0.0
 10
78.8092981977161
 20
-164.7960206382595
 30
0.0
 10
78.8092981977161
 20
-164.7960206382595
 30
0.0
 10
78.68898569203407
 20
-164.7960206382595
 30
0.0
 10
78.57004037622153
 20
-164.7898682905682
 30
0.0
 10
78.45276132226955
 20
-164.7778626679632
 30
0.0
 10
78.33548226831789
 20
-164.7658570453582
 30
0.0
 10
78.21986947622744
 20
-164.7479981478394
 30
0.0
 10
78.10622201798928
 20
-164.7245850481837
 30
0.0
 10
77.9925745597511
 20
-164.701171948528
 30
0.0
 10
77.88089243536587
 20
-164.6722046467353
 30
0.0
 10
77.77147471682493
 20
-164.6379822155832
 30
0.0
 10
77.662056998284
 20
-164.6037597844311
 30
0.0
 10
77.55490368558738
 20
-164.5642822239195
 30
0.0
 10
77.45031385072647
 20
-164.5198486068247
 30
0.0
 10
77.34572401586556
 20
-164.4754149897299
 30
0.0
 10
77.243697658841
 20
-164.426025316053
 30
0.0
 10
77.14453385164386
 20
-164.3719786585711
 30
0.0
 10
77.0453700444464
 20
-164.3179320010884
 30
0.0
 10
76.94906878707701
 20
-164.2592283598007
 30
0.0
 10
76.85592915152674
 20
-164.1961668074852
 30
0.0
 10
76.76278951597648
 20
-164.1331052551691
 30
0.0
 10
76.67281150224535
 20
-164.0656857918247
 30
0.0
 10
76.5862941823254
 20
-163.9942074902294
 30
0.0
 10
76.49977686240513
 20
-163.9227291886342
 30
0.0
 10
76.41672023629602
 20
-163.8471920487874
 30
0.0
 10
76.33742337598916
 20
-163.7678951434666
 30
0.0
 10
76.25812651568229
 20
-163.6885982381459
 30
0.0
 10
76.18258942117832
 20
-163.6055415673517
 30
0.0
 10
76.1111111644683
 20
-163.5190242038604
 30
0.0
 10
76.03963290775859
 20
-163.4325068403691
 30
0.0
 10
75.97221348884284
 20
-163.3425287841806
 30
0.0
 10
75.90915197971309
 20
-163.2493891080724
 30
0.0
 10
75.84609047058333
 20
-163.1562494319642
 30
0.0
 10
75.78738687123958
 20
-163.0599481359363
 30
0.0
 10
75.73334025367288
 20
-162.9607842927655
 30
0.0
 10
75.67929363610651
 20
-162.8616204495953
 30
0.0
 10
75.62990400031784
 20
-162.7595940592823
 30
0.0
 10
75.58547041829794
 20
-162.6550041946039
 30
0.0
 10
75.54103683627805
 20
-162.5504143299255
 30
0.0
 10
75.50155930802757
 20
-162.443260990881
 30
0.0
 10
75.46733690553792
 20
-162.3338432502486
 30
0.0
 10
75.43311450304826
 20
-162.2244255096162
 30
0.0
 10
75.40414722631941
 20
-162.1127433673953
 30
0.0
 10
75.38073414734276
 20
-161.9990958963632
 30
0.0
 10
75.35732106836612
 20
-161.8854484253312
 30
0.0
 10
75.33946218714233
 20
-161.7698356254881
 30
0.0
 10
75.32745657566245
 20
-161.6525565696107
 30
0.0
 10
75.31545096418226
 20
-161.5352775137333
 30
0.0
 10
75.30929862244662
 20
-161.4163322018216
 30
0.0
 10
75.30929862244662
 20
-161.2960197066532
 30
0.0
 10
75.30929862244662
 20
-161.2960197066532
 30
0.0
 10
75.30929862244662
 20
-155.4835198246662
 30
0.0
 10
75.30929862244662
 20
-155.4835198246662
 30
0.0
 10
75.30929862244662
 20
-155.4835198246662
 30
0.0
 10
75.30929862244662
 20
-149.6710199426799
 30
0.0
 10
75.30929862244662
 20
-149.6710199426799
 30
0.0
 10
75.30929862244662
 20
-149.6710199426799
 30
0.0
 10
75.30929862244662
 20
-143.8585200606932
 30
0.0
 10
75.30929862244662
 20
-143.8585200606932
 30
0.0
 10
75.30929862244662
 20
-143.8585200606932
 30
0.0
 10
75.30929862244662
 20
-138.0460201787066
 30
0.0
 10
75.30929862244662
 20
-138.0460201787066
 30
0.0
 10
75.30929862244662
 20
-138.0460201787066
 30
0.0
 10
75.30929862244662
 20
-132.2335202967199
 30
0.0
 10
75.30929862244662
 20
-132.2335202967199
 30
0.0
 10
75.30929862244662
 20
-132.2335202967199
 30
0.0
 10
75.30929862244662
 20
-126.4210204147332
 30
0.0
 10
75.30929862244662
 20
-126.4210204147332
 30
0.0
 10
75.30929862244662
 20
-126.4210204147332
 30
0.0
 10
75.30929862244662
 20
-120.6085205327463
 30
0.0
 10
75.30929862244662
 20
-120.6085205327463
 30
0.0
 10
75.30929862244662
 20
-120.6085205327463
 30
0.0
 10
75.30929862244662
 20
-114.7960206507596
 30
0.0
 10
75.30929862244662
 20
-114.7960206507596
 30
0.0
 10
75.30929862244662
 20
-114.7960206507596
 30
0.0
 10
75.30929862244662
 20
-108.9835207687729
 30
0.0
 10
75.30929862244662
 20
-108.9835207687729
 30
0.0
 10
75.30929862244662
 20
-108.9835207687729
 30
0.0
 10
75.30929862244662
 20
-103.171020886786
 30
0.0
 10
75.30929862244662
 20
-103.171020886786
 30
0.0
 10
75.30929862244662
 20
-103.171020886786
 30
0.0
 10
75.30929862244662
 20
-97.3585210047993
 30
0.0
 10
75.30929862244662
 20
-97.3585210047993
 30
0.0
 10
75.30929862244662
 20
-97.3585210047993
 30
0.0
 10
75.30929862244662
 20
-91.54602112281265
 30
0.0
 10
75.30929862244662
 20
-91.54602112281265
 30
0.0
 10
75.30929862244662
 20
-91.54602112281265
 30
0.0
 10
75.30929862244662
 20
-85.733521240826
 30
0.0
 10
75.30929862244662
 20
-85.733521240826
 30
0.0
 10
75.30929862244662
 20
-85.733521240826
 30
0.0
 10
75.30929862244662
 20
-79.92102135883933
 30
0.0
 10
75.30929862244662
 20
-79.92102135883933
 30
0.0
 10
75.30929862244662
 20
-79.92102135883933
 30
0.0
 10
75.30929862244662
 20
-74.10852147685267
 30
0.0
 10
75.30929862244662
 20
-74.10852147685267
 30
0.0
 10
75.30929862244662
 20
-74.10852147685267
 30
0.0
 10
75.30929862244662
 20
-68.29602159486602
 30
0.0
 10
75.30929862244662
 20
-68.29602159486602
 30
0.0
 10
75.30929862244662
 20
-68.17570909969758
 30
0.0
 10
75.31545096418226
 20
-68.05676378778593
 30
0.0
 10
75.32745657566245
 20
-67.93948473190854
 30
0.0
 10
75.33946218714233
 20
-67.82220567603115
 30
0.0
 10
75.35732106836612
 20
-67.70659287618801
 30
0.0
 10
75.38073414734276
 20
-67.59294540515596
 30
0.0
 10
75.40414722631941
 20
-67.47929793412392
 30
0.0
 10
75.43311450304826
 20
-67.36761579190298
 30
0.0
 10
75.46733690553792
 20
-67.25819805127058
 30
0.0
 10
75.50155930802757
 20
-67.1487803106382
 30
0.0
 10
75.54103683627805
 20
-67.04162697159438
 30
0.0
 10
75.58547041829794
 20
-66.93703710691565
 30
0.0
 10
75.62990400031784
 20
-66.83244724223691
 30
0.0
 10
75.67929363610651
 20
-66.7304208519239
 30
0.0
 10
75.73334025367288
 20
-66.63125700875342
 30
0.0
 10
75.78738687123958
 20
-66.53209316558295
 30
0.0
 10
75.84609047058333
 20
-66.43579186955505
 30
0.0
 10
75.90915197971309
 20
-66.34265219344684
 30
0.0
 10
75.97221348884284
 20
-66.24951251733863
 30
0.0
 10
76.03963290775859
 20
-66.15953446115013
 30
0.0
 10
76.1111111644683
 20
-66.0730170976588
 30
0.0
 10
76.18258942117832
 20
-65.98649973416748
 30
0.0
 10
76.25812651568229
 20
-65.9034430633727
 30
0.0
 10
76.33742337598916
 20
-65.82414615805226
 30
0.0
 10
76.41672023629602
 20
-65.74484925273181
 30
0.0
 10
76.49977686240513
 20
-65.66931211288505
 30
0.0
 10
76.5862941823254
 20
-65.59783381128979
 30
0.0
 10
76.67281150224535
 20
-65.52635550969453
 30
0.0
 10
76.76278951597648
 20
-65.4589360463501
 30
0.0
 10
76.85592915152674
 20
-65.395874494034
 30
0.0
 10
76.94906878707701
 20
-65.3328129417179
 30
0.0
 10
77.0453700444464
 20
-65.27410930043013
 30
0.0
 10
77.14453385164386
 20
-65.22006264294782
 30
0.0
 10
77.243697658841
 20
-65.16601598546552
 30
0.0
 10
77.34572401586556
 20
-65.11662631178869
 30
0.0
 10
77.45031385072647
 20
-65.07219269469418
 30
0.0
 10
77.55490368558738
 20
-65.02775907759965
 30
0.0
 10
77.662056998284
 20
-64.98828151708808
 30
0.0
 10
77.77147471682493
 20
-64.95405908593597
 30
0.0
 10
77.88089243536587
 20
-64.91983665478386
 30
0.0
 10
77.9925745597511
 20
-64.89086935299122
 30
0.0
 10
78.10622201798928
 20
-64.8674562533355
 30
0.0
 10
78.21986947622744
 20
-64.84404315367978
 30
0.0
 10
78.33548226831789
 20
-64.826184256161
 30
0.0
 10
78.45276132226955
 20
-64.814178633556
 30
0.0
 10
78.57004037622153
 20
-64.80217301095098
 30
0.0
 10
78.68898569203407
 20
-64.79602066325974
 30
0.0
 10
78.8092981977161
 20
-64.79602066325974
 30
0.0
 10
78.8092981977161
 20
-64.79602066325974
 30
0.0
 10
81.62179824999481
 20
-64.79602066325974
 30
0.0
 10
81.62179824999481
 20
-64.79602066325974
 30
0.0
 10
81.62179824999481
 20
-64.79602066325974
 30
0.0
 10
84.43429830227353
 20
-64.79602066325974
 30
0.0
 10
84.43429830227353
 20
-64.79602066325974
 30
0.0
 10
84.43429830227353
 20
-64.79602066325974
 30
0.0
 10
87.24679835455257
 20
-64.79602066325974
 30
0.0
 10
87.24679835455257
 20
-64.79602066325974
 30
0.0
 10
87.24679835455257
 20
-64.79602066325974
 30
0.0
 10
90.05929840683129
 20
-64.79602066325974
 30
0.0
 10
90.05929840683129
 20
-64.79602066325974
 30
0.0
 10
90.05929840683129
 20
-64.79602066325974
 30
0.0
 10
92.87179845911001
 20
-64.79602066325974
 30
0.0
 10
92.87179845911001
 20
-64.79602066325974
 30
0.0
 10
92.87179845911001
 20
-64.79602066325974
 30
0.0
 10
95.68429851138904
 20
-64.79602066325974
 30
0.0
 10
95.68429851138904
 20
-64.79602066325974
 30
0.0
 10
95.68429851138904
 20
-64.79602066325974
 30
0.0
 10
98.49679856366777
 20
-64.79602066325974
 30
0.0
 10
98.49679856366777
 20
-64.79602066325974
 30
0.0
 10
98.49679856366777
 20
-64.79602066325974
 30
0.0
 10
101.3092986159465
 20
-64.79602066325974
 30
0.0
 10
101.3092986159465
 20
-64.79602066325974
 30
0.0
 10
101.3092986159465
 20
-64.79602066325974
 30
0.0
 10
104.1217986682252
 20
-64.79602066325974
 30
0.0
 10
104.1217986682252
 20
-64.79602066325974
 30
0.0
 10
104.1217986682252
 20
-64.79602066325974
 30
0.0
 10
106.9342987205039
 20
-64.79602066325974
 30
0.0
 10
106.9342987205039
 20
-64.79602066325974
 30
0.0
 10
106.9342987205039
 20
-64.79602066325974
 30
0.0
 10
109.746798772783
 20
-64.79602066325974
 30
0.0
 10
109.746798772783
 20
-64.79602066325974
 30
0.0
 10
109.746798772783
 20
-64.79602066325974
 30
0.0
 10
112.5592988250614
 20
-64.79602066325974
 30
0.0
 10
112.5592988250614
 20
-64.79602066325974
 30
0.0
 10
112.5592988250614
 20
-64.79602066325974
 30
0.0
 10
115.3717988773404
 20
-64.79602066325974
 30
0.0
 10
115.3717988773404
 20
-64.79602066325974
 30
0.0
 10
115.3717988773404
 20
-64.79602066325974
 30
0.0
 10
118.1842989296194
 20
-64.79602066325974
 30
0.0
 10
118.1842989296194
 20
-64.79602066325974
 30
0.0
 10
118.1842989296194
 20
-64.79602066325974
 30
0.0
 10
120.9967989818978
 20
-64.79602066325974
 30
0.0
 10
120.9967989818978
 20
-64.79602066325974
 30
0.0
 10
120.9967989818978
 20
-64.79602066325974
 30
0.0
 10
123.8092990341769
 20
-64.79602066325974
 30
0.0
 10
123.8092990341769
 20
-64.79602066325974
 30
0.0
 10
123.9296115398589
 20
-64.79602066325974
 30
0.0
 10
124.0485568556714
 20
-64.80217301095098
 30
0.0
 10
124.1658359096231
 20
-64.814178633556
 30
0.0
 10
124.2831149635748
 20
-64.826184256161
 30
0.0
 10
124.3987277556655
 20
-64.84404315367978
 30
0.0
 10
124.5123752139034
 20
-64.8674562533355
 30
0.0
 10
124.6260226721412
 20
-64.89086935299122
 30
0.0
 10
124.7377047965261
 20
-64.91983665478386
 30
0.0
 10
124.8471225150674
 20
-64.95405908593597
 30
0.0
 10
124.9565402336086
 20
-64.98828151708808
 30
0.0
 10
125.0636935463056
 20
-65.02775907759965
 30
0.0
 10
125.1682833811662
 20
-65.07219269469418
 30
0.0
 10
125.2728732160268
 20
-65.11662631178869
 30
0.0
 10
125.3748995730516
 20
-65.16601598546552
 30
0.0
 10
125.4740633802488
 20
-65.22006264294782
 30
0.0
 10
125.5732271874459
 20
-65.27410930043013
 30
0.0
 10
125.6695284448153
 20
-65.3328129417179
 30
0.0
 10
125.7626680803662
 20
-65.395874494034
 30
0.0
 10
125.8558077159165
 20
-65.4589360463501
 30
0.0
 10
125.9457857296476
 20
-65.52635550969453
 30
0.0
 10
126.0323030495676
 20
-65.59783381128979
 30
0.0
 10
126.1188203694875
 20
-65.66931211288505
 30
0.0
 10
126.2018769955969
 20
-65.74484925273181
 30
0.0
 10
126.2811738559038
 20
-65.82414615805226
 30
0.0
 10
126.3604707162107
 20
-65.9034430633727
 30
0.0
 10
126.436007810715
 20
-65.98649973416748
 30
0.0
 10
126.5074860674247
 20
-66.0730170976588
 30
0.0
 10
126.5789643241344
 20
-66.15953446115013
 30
0.0
 10
126.6463837430501
 20
-66.24951251733863
 30
0.0
 10
126.7094452521799
 20
-66.34265219344684
 30
0.0
 10
126.7725067613103
 20
-66.43579186955505
 30
0.0
 10
126.831210360654
 20
-66.53209316558295
 30
0.0
 10
126.8852569782204
 20
-66.63125700875342
 30
0.0
 10
126.9393035957868
 20
-66.7304208519239
 30
0.0
 10
126.9886932315758
 20
-66.83244724223691
 30
0.0
 10
127.0331268135953
 20
-66.93703710691565
 30
0.0
 10
127.0775603956149
 20
-67.04162697159438
 30
0.0
 10
127.1170379238657
 20
-67.1487803106382
 30
0.0
 10
127.1512603263557
 20
-67.25819805127058
 30
0.0
 10
127.1854827288457
 20
-67.36761579190298
 30
0.0
 10
127.2144500055742
 20
-67.47929793412392
 30
0.0
 10
127.2378630845505
 20
-67.59294540515596
 30
0.0
 10
127.2612761635268
 20
-67.70659287618801
 30
0.0
 10
127.279135044751
 20
-67.82220567603115
 30
0.0
 10
127.2911406562308
 20
-67.93948473190854
 30
0.0
 10
127.3031462677107
 20
-68.05676378778593
 30
0.0
 10
127.3092986094463
 20
-68.17570909969758
 30
0.0
 10
127.3092986094463
 20
-68.29602159486602
 30
0.0
 10
127.3092986094463
 20
-68.29602159486602
 30
0.0
 10
127.3092986094463
 20
-74.10852147685267
 30
0.0
 10
127.3092986094463
 20
-74.10852147685267
 30
0.0
 10
127.3092986094463
 20
-74.10852147685267
 30
0.0
 10
127.3092986094463
 20
-79.92102135883933
 30
0.0
 10
127.3092986094463
 20
-79.92102135883933
 30
0.0
 10
127.3092986094463
 20
-79.92102135883933
 30
0.0
 10
127.3092986094463
 20
-85.733521240826
 30
0.0
 10
127.3092986094463
 20
-85.733521240826
 30
0.0
 10
127.3092986094463
 20
-85.733521240826
 30
0.0
 10
127.3092986094463
 20
-91.54602112281265
 30
0.0
 10
127.3092986094463
 20
-91.54602112281265
 30
0.0
 10
127.3092986094463
 20
-91.54602112281265
 30
0.0
 10
127.3092986094463
 20
-97.3585210047993
 30
0.0
 10
127.3092986094463
 20
-97.3585210047993
 30
0.0
 10
127.3092986094463
 20
-97.3585210047993
 30
0.0
 10
127.3092986094463
 20
-103.171020886786
 30
0.0
 10
127.3092986094463
 20
-103.171020886786
 30
0.0
 10
127.3092986094463
 20
-103.171020886786
 30
0.0
 10
127.3092986094463
 20
-108.9835207687729
 30
0.0
 10
127.3092986094463
 20
-108.9835207687729
 30
0.0
 10
127.3092986094463
 20
-108.9835207687729
 30
0.0
 10
127.3092986094463
 20
-114.7960206507596
 30
0.0
 10
127.3092986094463
 20
-114.7960206507596
 30
0.0
 10
127.3092986094463
 20
-114.7960206507596
 30
0.0
 10
127.3092986094463
 20
-120.6085205327463
 30
0.0
 10
127.3092986094463
 20
-120.6085205327463
 30
0.0
 10
127.3092986094463
 20
-120.6085205327463
 30
0.0
 10
127.3092986094463
 20
-126.4210204147332
 30
0.0
 10
127.3092986094463
 20
-126.4210204147332
 30
0.0
 10
127.3092986094463
 20
-126.4210204147332
 30
0.0
 10
127.3092986094463
 20
-132.2335202967199
 30
0.0
 10
127.3092986094463
 20
-132.2335202967199
 30
0.0
 10
127.3092986094463
 20
-132.2335202967199
 30
0.0
 10
127.3092986094463
 20
-138.0460201787066
 30
0.0
 10
127.3092986094463
 20
-138.0460201787066
 30
0.0
 10
127.3092986094463
 20
-138.0460201787066
 30
0.0
 10
127.3092986094463
 20
-143.8585200606932
 30
0.0
 10
127.3092986094463
 20
-143.8585200606932
 30
0.0
 10
127.3092986094463
 20
-143.8585200606932
 30
0.0
 10
127.3092986094463
 20
-149.6710199426799
 30
0.0
 10
127.3092986094463
 20
-149.6710199426799
 30
0.0
 10
127.3092986094463
 20
-149.6710199426799
 30
0.0
 10
127.3092986094463
 20
-155.4835198246662
 30
0.0
 10
127.3092986094463
 20
-155.4835198246662
 30
0.0
 10
127.3092986094463
 20
-155.4835198246662
 30
0.0
 10
127.3092986094463
 20
-161.2960197066532
 30
0.0
 10
127.3092986094463
 20
-161.2960197066532
 30
0.0
  0
ENDBLK
  5
44
330
41
100
AcDbEntity
  8
0
100
AcDbBlockEnd
  0
ENDSEC
  0
SECTION
  2
ENTITIES
  0
INSERT
  5
42
330
1F
100
AcDbEntity
  8
LIVELLO_1
100
AcDbBlockReference
  2
BLOCK_2
 10
0.0
 20
0.0
 30
0.0
  0
ENDSEC
  0
SECTION
  2
OBJECTS
  0
DICTIONARY
  5
C
330
0
100
AcDbDictionary
  3
ACAD_GROUP
350
D
  3
ACAD_LAYOUT
350
1A
  3
ACAD_MATERIAL
350
3B
  3
ACAD_MLEADERSTYLE
350
49
  3
ACAD_MLINESTYLE
350
17
  3
ACAD_PLOTSETTINGS
350
19
  3
ACAD_VISUALSTYLE
350
2A
  3
ACDBVARIABLEDICTIONARY
350
47
1001
ACAD
1000
TREAT_AS_HARD
1070
     0
  0
DICTIONARY
  5
D
102
{ACAD_REACTORS
330
C
102
}
330
C
100
AcDbDictionary
1001
ACAD
1000
TREAT_AS_HARD
1070
     0
  0
DICTIONARY
  5
1A
102
{ACAD_REACTORS
330
C
102
}
330
C
100
AcDbDictionary
1001
ACAD
1000
TREAT_AS_HARD
1070
     0
  0
DICTIONARY
  5
3B
102
{ACAD_REACTORS
330
C
102
}
330
C
100
AcDbDictionary
  3
BYBLOCK
350
3D
  3
BYLAYER
350
3C
  3
GLOBAL
350
3E
1001
ACAD
1000
TREAT_AS_HARD
1070
     0
  0
DICTIONARY
  5
49
102
{ACAD_REACTORS
330
C
102
}
330
C
100
AcDbDictionary
1001
ACAD
1000
TREAT_AS_HARD
1070
     0
  0
DICTIONARY
  5
17
102
{ACAD_REACTORS
330
C
102
}
330
C
100
AcDbDictionary
  3
STANDARD
350
18
1001
ACAD
1000
TREAT_AS_HARD
1070
     0
  0
DICTIONARY
  5
19
102
{ACAD_REACTORS
330
C
102
}
330
C
100
AcDbDictionary
1001
ACAD
1000
TREAT_AS_HARD
1070
     0
  0
DICTIONARY
  5
2A
102
{ACAD_REACTORS
330
C
102
}
330
C
100
AcDbDictionary
  3
2DWIREFRAME
350
2F
  3
3DWIREFRAME
350
30
  3
3D_HIDDEN
350
31
  3
BASIC
350
32
  3
BRIGHTEN
350
36
  3
COLORCHANGE
350
3A
  3
CONCEPTUAL
350
34
  3
DIM
350
35
  3
FACEPATTERN
350
39
  3
FLAT
350
2B
  3
FLATWITHEDGES
350
2C
  3
GOURAUD
350
2D
  3
GOURAUDWITHEDGES
350
2E
  3
LINEPATTERN
350
38
  3
REALISTIC
350
33
  3
THICKEN
350
37
1001
ACAD
1000
TREAT_AS_HARD
1070
     0
  0
DICTIONARY
  5
47
102
{ACAD_REACTORS
330
C
102
}
330
C
100
AcDbDictionary
  3
DIMASSOC
350
4A
  3
HIDETEXT
350
4B
1001
ACAD
1000
TREAT_AS_HARD
1070
     0
  0
MATERIAL
  5
3D
102
{ACAD_REACTORS
330
3B
102
}
102
{ACAD_XDICTIONARY
360
4E
102
}
330
3B
100
AcDbMaterial
  1
ByBlock
  0
MATERIAL
  5
3C
102
{ACAD_REACTORS
330
3B
102
}
102
{ACAD_XDICTIONARY
360
4C
102
}
330
3B
100
AcDbMaterial
  1
ByLayer
  0
MATERIAL
  5
3E
102
{ACAD_REACTORS
330
3B
102
}
102
{ACAD_XDICTIONARY
360
50
102
}
330
3B
100
AcDbMaterial
  1
Global
  0
MLINESTYLE
  5
18
102
{ACAD_REACTORS
330
17
102
}
330
17
100
AcDbMlineStyle
  2
Standard
 70
     0
  3

 62
   256
 51
90.0
 52
90.0
 71
     2
 49
0.5
 62
   256
  6
BYLAYER
 49
-0.5
 62
   256
  6
BYLAYER
  0
ACAD_PROXY_OBJECT
  5
2F
102
{ACAD_REACTORS
330
2A
102
}
330
2A
100
AcDbZombieObject
 90
      499
 91
      501
 93
      436
310
42CC9915DA5C99599C985B595049028333333333333E3BF0000000000000FB0107901411070040501600405405064090741402480A0340
1001
ACAD
1000
AcDbSavedByObjectVersion
1070
     0
  0
ACAD_PROXY_OBJECT
  5
30
102
{ACAD_REACTORS
330
2A
102
}
330
2A
100
AcDbZombieObject
 90
      499
 91
      501
 93
      436
310
42CCD915DA5C99599C985B595059028333333333333E3BF0000000000000FB0107901411070040501600405405064090741402480A0340
1001
ACAD
1000
AcDbSavedByObjectVersion
1070
     0
  0
ACAD_PROXY_OBJECT
  5
31
102
{ACAD_REACTORS
330
2A
102
}
330
2A
100
AcDbZombieObject
 90
      499
 91
      501
 93
      500
310
424CD108121A5919195B90640502408333333333333E3BF0000000000000FB01079024090700405020000000000001110200405405064090740C02480A0340
1001
ACAD
1000
AcDbSavedByObjectVersion
1070
     0
  0
ACAD_PROXY_OBJECT
  5
32
102
{ACAD_REACTORS
330
2A
102
}
330
2A
100
AcDbZombieObject
 90
      499
 91
      501
 93
      388
310
4150985CDA58D07406404333333333333E3BF0000000000000FB0107A41107004050150841D405064090741402480A0350
1001
ACAD
1000
AcDbSavedByObjectVersion
1070
     0
  0
ACAD_PROXY_OBJECT
  5
36
102
{ACAD_REACTORS
330
2A
102
}
330
2A
100
AcDbZombieObject
 90
      499
 91
      501
 93
      428
310
42109C9A59DA1D195B90C409028333333333333E3BF0000000000000FB010790141107004050150841D405064090741402480A029950
1001
ACAD
1000
AcDbSavedByObjectVersion
1070
     0
  0
ACAD_PROXY_OBJECT
  5
3A
102
{ACAD_REACTORS
330
2A
102
}
330
2A
100
AcDbZombieObject
 90
      499
 91
      501
 93
      452
310
42D0DBDB1BDC90DA185B99D95104090240C333333333333E3BF0000000000000FB0108901411070040501508421405064090741402480A0350
1001
ACAD
1000
AcDbSavedByObjectVersion
1070
     0
  0
ACAD_PROXY_OBJECT
  5
34
102
{ACAD_REACTORS
330
2A
102
}
330
2A
100
AcDbZombieObject
 90
      499
 91
      501
 93
      500
310
4290DBDB98D95C1D1D585B10940D028333333333333E3BF0000000000000FB0107902409070040501000000000000111010841D405064090740C02480A0340
1001
ACAD
1000
AcDbSavedByObjectVersion
1070
     0
  0
ACAD_PROXY_OBJECT
  5
35
102
{ACAD_REACTORS
330
2A
102
}
330
2A
100
AcDbZombieObject
 90
      499
 91
      501
 93
      412
310
40D11A5B50B409028333333333333E3BF0000000000000FB010790141107004050150841D405064090741402480A02677FFFFFD0
1001
ACAD
1000
AcDbSavedByObjectVersion
1070
     0
  0
ACAD_PROXY_OBJECT
  5
39
102
{ACAD_REACTORS
330
2A
102
}
330
2A
100
AcDbZombieObject
 90
      499
 91
      501
 93
      444
310
42D19858D95C185D1D195C9B90F409028333333333333E3BF0000000000000FB010790141107004050150841D405064090741402480A0350
1001
ACAD
1000
AcDbSavedByObjectVersion
1070
     0
  0
ACAD_PROXY_OBJECT
  5
2B
102
{ACAD_REACTORS
330
2A
102
}
330
2A
100
AcDbZombieObject
 90
      499
 91
      501
 93
      388
310
41119B185D240901404333333333333E3BF0000000000000F9010740A41107004050150841D405064090741402480A1B50
1001
ACAD
1000
AcDbSavedByObjectVersion
1070
     0
  0
ACAD_PROXY_OBJECT
  5
2C
102
{ACAD_REACTORS
330
2A
102
}
330
2A
100
AcDbZombieObject
 90
      499
 91
      501
 93
      476
310
43519B185D15DA5D1A115919D95CD0140901404333333333333E3BF0000000000000F9010740901411070040501600405405064090741402480A1B50
1001
ACAD
1000
AcDbSavedByObjectVersion
1070
     0
  0
ACAD_PROXY_OBJECT
  5
2D
102
{ACAD_REACTORS
330
2A
102
}
330
2A
100
AcDbZombieObject
 90
      499
 91
      501
 93
      412
310
41D1DBDD5C985D5910240902404333333333333E3BF0000000000000F9010740A411070040501641D405064090741402480A1B50
1001
ACAD
1000
AcDbSavedByObjectVersion
1070
     0
  0
ACAD_PROXY_OBJECT
  5
2E
102
{ACAD_REACTORS
330
2A
102
}
330
2A
100
AcDbZombieObject
 90
      499
 91
      501
 93
      500
310
4411DBDD5C985D5915DA5D1A115919D95CD0340902404333333333333E3BF0000000000000F9010740901411070040501600405405064090741402480A1B50
1001
ACAD
1000
AcDbSavedByObjectVersion
1070
     0
  0
ACAD_PROXY_OBJECT
  5
38
102
{ACAD_REACTORS
330
2A
102
}
330
2A
100
AcDbZombieObject
 90
      499
 91
      501
 93
      444
310
42D31A5B995C185D1D195C9B90E409028333333333333E3BF0000000000000FB010790141107004050750841D405064090741402483A0350
1001
ACAD
1000
AcDbSavedByObjectVersion
1070
     0
  0
ACAD_PROXY_OBJECT
  5
33
102
{ACAD_REACTORS
330
2A
102
}
330
2A
100
AcDbZombieObject
 90
      499
 91
      501
 93
      420
310
425499585B1A5CDD1A58D08409028333333333333E3BF0000000000000FB01079019070040501508421405064090741402480A1B40
1001
ACAD
1000
AcDbSavedByObjectVersion
1070
     0
  0
ACAD_PROXY_OBJECT
  5
37
102
{ACAD_REACTORS
330
2A
102
}
330
2A
100
AcDbZombieObject
 90
      499
 91
      501
 93
      412
310
41D51A1A58DAD95B90D409028333333333333E3BF0000000000000FB010790141107004050150C41D405064090741402480A0350
1001
ACAD
1000
AcDbSavedByObjectVersion
1070
     0
  0
DICTIONARYVAR
  5
4A
102
{ACAD_REACTORS
330
47
102
}
330
47
100
DictionaryVariables
280
     0
  1
2
  0
DICTIONARYVAR
  5
4B
102
{ACAD_REACTORS
330
47
102
}
330
47
100
DictionaryVariables
280
     0
  1
1
  0
DICTIONARY
  5
4E
330
3D
100
AcDbDictionary
  3
ACAD_XREC_ROUNDTRIP
360
4F
1001
ACAD
1000
TREAT_AS_HARD
1070
     1
  0
DICTIONARY
  5
4C
330
3C
100
AcDbDictionary
  3
ACAD_XREC_ROUNDTRIP
360
4D
1001
ACAD
1000
TREAT_AS_HARD
1070
     1
  0
DICTIONARY
  5
50
330
3E
100
AcDbDictionary
  3
ACAD_XREC_ROUNDTRIP
360
51
1001
ACAD
1000
TREAT_AS_HARD
1070
     1
  0
XRECORD
  5
4F
102
{ACAD_REACTORS
330
4E
102
}
330
4E
100
AcDbXrecord
102
MATERIAL
148
0.0
149
0.0
149
0.0
 93
        0
 94
      127
282
     0
 72
     1
 77
     1
171
     1
175
     1
179
     1
273
     0
  0
XRECORD
  5
4D
102
{ACAD_REACTORS
330
4C
102
}
330
4C
100
AcDbXrecord
102
MATERIAL
148
0.0
149
0.0
149
0.0
 93
        0
 94
      127
282
     0
 72
     1
 77
     1
171
     1
175
     1
179
     1
273
     0
  0
XRECORD
  5
51
102
{ACAD_REACTORS
330
50
102
}
330
50
100
AcDbXrecord
102
MATERIAL
148
0.0
149
0.0
149
0.0
 93
        0
 94
      127
282
     0
 72
     1
 77
     1
171
     1
175
     1
179
     1
273
     0
  0
ENDSEC
  0
EOF
